<svg xmlns="http://www.w3.org/2000/svg" viewBox="0 0 277.67 64.84"><defs><style>.cls-1,.cls-2{fill:#fff;}.cls-2,.cls-3{fill-rule:evenodd;}.cls-3{fill:#fc0;}</style></defs><title>Asset 1</title><g id="Layer_2" data-name="Layer 2"><g id="_1" data-name="???? 1"><rect class="cls-1" x="104.66" y="38.44" width="105.02" height="2.09"/><path class="cls-2" d="M266,45.21h.09c.68-.73,3.61-3.61,4.2-4.28s1-1.1,1-1.44a.36.36,0,0,0-.27-.39c-.18,0-.27-.09-.27-.21s.11-.18.32-.18c.43,0,1.53,0,2.08,0s1.74,0,2.36,0c.21,0,.34,0,.34.18s-.11.21-.3.21a3.89,3.89,0,0,0-1.16.23,6,6,0,0,0-2.13,1.44c-.64.59-3.64,3.43-4.25,4.14.71.91,4.66,5,5.44,5.76a9.9,9.9,0,0,0,2.74,2.08,2.89,2.89,0,0,0,1.23.25c.16,0,.28.09.28.21s-.11.2-.48.2h-1.76a12.74,12.74,0,0,1-1.39,0,4.19,4.19,0,0,1-2.61-1.26c-.87-.75-4.73-5.23-5.17-5.83l-.2-.27H266v1.76c0,1.78,0,3.32,0,4.16,0,.55.23.92.73,1a7.19,7.19,0,0,0,1,.07.26.26,0,0,1,.27.21c0,.14-.16.2-.39.2-1.12,0-2.56-.07-3.06-.07s-1.74.07-2.54.07c-.25,0-.39-.07-.39-.2s.07-.21.32-.21a2.91,2.91,0,0,0,.71-.07c.41-.09.52-.46.59-1,.09-.82.09-2.36.09-4.14V44.34c0-2.95,0-3.5,0-4.12s-.23-.87-.87-1a3.68,3.68,0,0,0-.8-.07c-.21,0-.34-.07-.34-.21s.16-.18.46-.18c1,0,2.33,0,2.81,0s1.92,0,2.58,0c.3,0,.44,0,.44.18s-.11.21-.27.21a2.77,2.77,0,0,0-.57.07c-.55.09-.71.37-.76,1s0,1.17,0,4.12Z"/><path class="cls-2" d="M217.13,43.8c0-2.48,0-3,0-3.57s-.26-1-.74-1.09a3.5,3.5,0,0,0-.78-.08c-.22,0-.35,0-.35-.19s.17-.16.52-.16c.83,0,2.2.06,2.83.06,2.5,0,3.37,0,3.54,0h.75c.9,0,1.52-.06,1.94-.09s.65-.09.76-.09.22.11.22.39-.08,1.68-.08,2.16c0,.19-.08.3-.25.3s-.28-.09-.31-.37l0-.2c-.06-.48-.82-1-3.31-1l-1.77,0a.61.61,0,0,0-.16.43c0,.62,0,1.17,0,4.12v.43h0v0h.24a6.51,6.51,0,0,0,.72,0,6,6,0,0,0,.65,0c2.62,0,5.55,1.24,5.55,4.33,0,2-1.56,4.12-5.06,4.23h-.35c-1.35,0-2.6-.06-3.16-.06s-1.87.06-2.74.06c-.28,0-.44-.06-.44-.19s.09-.16.35-.16a4,4,0,0,0,.78-.08c.44-.08.57-.41.63-1h0s0-.1,0-.15c.09-.82.09-2.36.09-4.14V43.8Zm2.7,2v2c0,1.71,0,3.13.07,4a.91.91,0,0,0,.55.46,3.68,3.68,0,0,0,1.44.23,2.41,2.41,0,0,0,2.47-2.74,4.26,4.26,0,0,0-1.9-3.45,2.85,2.85,0,0,0-1.74-.5h-.89Z"/><path class="cls-2" d="M247,44.39c0-2.95,0-3.49,0-4.11s-.23-1-.66-1.09a2.78,2.78,0,0,0-.7-.08c-.19,0-.31,0-.31-.19s.15-.16.47-.16c.74,0,2,.06,2.52.06s1.63-.06,2.37-.06c.25,0,.41,0,.41.16s-.12.19-.31.19a3.34,3.34,0,0,0-.58.06c-.52.1-.68.43-.72,1.11s0,1.16,0,4.11v1.19h6.25V44.39c0-2.95,0-3.49,0-4.11s-.23-1-.66-1.09a2.78,2.78,0,0,0-.7-.08c-.19,0-.31,0-.31-.19s.15-.16.47-.16c.74,0,2,.06,2.52.06s1.63-.06,2.37-.06c.25,0,.41,0,.41.16s-.12.19-.31.19a3.34,3.34,0,0,0-.58.06c-.52.1-.68.43-.72,1.11s0,1.16,0,4.11V47.8c0,1.88,0,3.41.08,4.25.06.52.19.87.77,1a8.26,8.26,0,0,0,1,.08c.21,0,.31.06.31.16s-.15.19-.37.19c-1.28,0-2.5-.06-3-.06s-1.67.06-2.44.06c-.25,0-.39-.06-.39-.19s.08-.16.31-.16A3.18,3.18,0,0,0,255,53c.39-.08.5-.41.56-1,.1-.81.1-2.35.1-4.23V46.61h-6.25V47.8c0,1.88,0,3.41.08,4.25.06.52.19.87.77,1a8.26,8.26,0,0,0,1,.08c.21,0,.31.06.31.16s-.15.19-.37.19c-1.28,0-2.5-.06-3-.06s-1.67.06-2.44.06c-.25,0-.39-.06-.39-.19s.08-.16.31-.16a3.18,3.18,0,0,0,.7-.08c.39-.08.5-.41.56-1,.1-.81.1-2.35.1-4.23Z"/><path class="cls-3" d="M138.9,23.17c0,2.7,0,4.9-.14,6.08-.08.81-.25,1.28-.81,1.39a4.52,4.52,0,0,1-1,.11c-.33,0-.45.08-.45.22s.19.28.56.28c1.11,0,2.87-.08,3.51-.08s2.51.08,4.35.08c.31,0,.53-.08.53-.28s-.14-.22-.45-.22a11.67,11.67,0,0,1-1.42-.11c-.84-.11-1-.61-1.11-1.37-.11-1.2-.11-3.4-.11-6.1V18.26c0-4.24,0-5,.06-5.91s.28-1.45,1-1.59a4.67,4.67,0,0,1,.84-.08c.28,0,.45-.06.45-.28s-.22-.22-.59-.22c-1.06,0-2.7.25-3.4.25s-2.56-.08-3.62-.08h-5.65c-1.06,0-2.7.08-3.4.08s-2.56-.25-3.62-.25c-.45,0-.67.06-.67.22s.17.28.45.28a4,4,0,0,1,1,.11c.61.14.89.61.95,1.56s.06,1.67.06,5.91v4.91c0,2.7,0,4.9-.14,6.08-.08.81-.25,1.28-.81,1.39a4.52,4.52,0,0,1-1,.11c-.33,0-.45.08-.45.22s.2.28.56.28c1.11,0,2.87-.08,3.51-.08s2.51.08,4.35.08c.31,0,.53-.08.53-.28s-.14-.22-.45-.22a11.68,11.68,0,0,1-1.42-.11c-.84-.11-1-.61-1.11-1.37-.11-1.2-.11-3.4-.11-6.1V18.26c0-2.37,0-5.49,0-6.33h9.19c0,.83,0,4,0,6.33Z"/><path class="cls-3" d="M148.91,18.38c0-4.28,0-5.06-.06-6s-.34-1.43-1-1.57a4,4,0,0,0-1-.11c-.28,0-.45-.06-.45-.28s.22-.23.68-.23c1.07,0,2.84.09,3.66.09s2.36-.09,3.43-.09c.36,0,.59.06.59.23s-.17.28-.45.28a4.85,4.85,0,0,0-.84.08c-.76.14-1,.62-1,1.6s-.06,1.69-.06,6v6.37l10.14-10.21c0-1.13,0-1.61-.05-2.13-.06-1-.34-1.43-1-1.57a4,4,0,0,0-1-.11c-.28,0-.45-.06-.45-.28s.22-.23.68-.23c1.07,0,2.84.09,3.66.09s2.36-.09,3.43-.09c.36,0,.59.06.59.23s-.17.28-.45.28a4.85,4.85,0,0,0-.84.08c-.76.14-1,.62-1,1.6s-.06,1.69-.06,6v4.95c0,2.73,0,4.95.11,6.16.08.76.28,1.27,1.12,1.38a11.93,11.93,0,0,0,1.43.11c.31,0,.45.09.45.23s-.22.28-.53.28c-1.86,0-3.63-.08-4.39-.08s-2.42.08-3.54.08c-.37,0-.56-.08-.56-.28s.11-.23.45-.23a4.6,4.6,0,0,0,1-.11c.56-.11.73-.59.82-1.41.14-1.18.14-3.4.14-6.13V16.68L152.4,26.88c0,1.09,0,2,.1,2.61s.28,1.27,1.12,1.38a11.93,11.93,0,0,0,1.43.11c.31,0,.45.09.45.23s-.22.28-.53.28c-1.86,0-3.63-.08-4.39-.08s-2.42.08-3.54.08c-.37,0-.56-.08-.56-.28s.11-.23.45-.23a4.6,4.6,0,0,0,1-.11c.56-.11.73-.59.82-1.41.14-1.18.14-3.4.14-6.13Z"/><path class="cls-3" d="M177.45,11.57l-4.19.11c-1.63.06-2.31.2-2.73.82a3.34,3.34,0,0,0-.48,1c-.05.23-.14.34-.31.34s-.25-.14-.25-.45.53-3,.59-3.23.17-.53.34-.53a6.5,6.5,0,0,0,1.21.34c.82.08,1.88.14,2.81.14h11.13a13.42,13.42,0,0,0,1.94-.14,6.66,6.66,0,0,1,.76-.14c.2,0,.22.17.22.59,0,.59-.08,2.53-.08,3.26,0,.28-.08.45-.25.45s-.28-.14-.31-.56l0-.31c-.06-.73-.82-1.52-3.32-1.58L181,11.57V23.1c0,2.59,0,4.81.14,6,.09.79.25,1.41,1.1,1.52a11.93,11.93,0,0,0,1.44.11c.31,0,.45.08.45.22s-.22.28-.53.28c-1.86,0-3.63-.08-4.42-.08s-2.42.08-3.54.08c-.37,0-.56-.08-.56-.28s.11-.22.45-.22a4.6,4.6,0,0,0,1-.11c.56-.11.73-.73.82-1.55.14-1.18.14-3.4.14-6Z"/><path class="cls-3" d="M193.12,23.91c-.14,0-.2.06-.25.22l-1.52,4a5.5,5.5,0,0,0-.42,1.72c0,.51.25.87,1.13.87h.42c.34,0,.42.06.42.22s-.17.28-.48.28c-.9,0-2.11-.08-3-.08-.31,0-1.86.08-3.32.08-.37,0-.53-.06-.53-.28s.11-.22.34-.22a8.47,8.47,0,0,0,.87-.06c1.29-.17,1.83-1.13,2.39-2.53l7.06-17.66c.34-.82.51-1.12.79-1.12s.42.25.7.9c.67,1.55,5.17,13,7,17.29,1.07,2.53,1.88,2.92,2.47,3.07a6.18,6.18,0,0,0,1.18.11c.23,0,.36,0,.36.22s-.25.28-1.29.28-3.07,0-5.32-.06c-.51,0-.84,0-.84-.22s.11-.22.39-.25a.46.46,0,0,0,.26-.65l-2.25-6a.27.27,0,0,0-.28-.2Zm5.73-1.41h0c.14,0,.17-.09.14-.17l-2.53-6.95c0-.11-.06-.25-.14-.25s-.14.14-.17.25l-2.59,6.92c0,.11,0,.2.12.2Z"/><path class="cls-3" d="M215.27,10.11c.08-.48.25-.73.48-.73s.39.14.76.87l7.68,15.86,7.65-16.06c.22-.45.37-.67.62-.67s.42.28.51.87l2.56,17.38c.26,1.77.54,2.59,1.38,2.84a5.62,5.62,0,0,0,1.74.28c.26,0,.45,0,.45.2s-.34.31-.73.31c-.7,0-4.58-.08-5.71-.17-.65-.06-.81-.14-.81-.31s.11-.23.31-.31.25-.42.14-1.21L230.6,16.88h-.11l-6.13,12.77c-.65,1.32-.79,1.57-1,1.57s-.53-.56-1-1.41c-.67-1.29-2.9-5.6-3.23-6.38-.25-.59-1.94-4.13-2.93-6.24h-.11L214.6,28.38a11,11,0,0,0-.08,1.32c0,.53.36.79.84.9a5.44,5.44,0,0,0,1.18.14c.23,0,.42.06.42.2s-.25.31-.68.31c-1.18,0-2.45-.08-3-.08s-1.88.08-2.78.08c-.28,0-.5-.06-.5-.31s.17-.2.45-.2a3.6,3.6,0,0,0,.84-.08c.79-.17,1-1.27,1.15-2.22Z"/><path class="cls-3" d="M242.91,18.15c0-4.28,0-5.06-.06-6s-.28-1.41-1.21-1.6a5.89,5.89,0,0,0-1.1-.08c-.31,0-.48-.06-.48-.25s.2-.25.62-.25L243,10c.73,0,1.38.06,1.77.06.9,0,6.49,0,7,0A11.59,11.59,0,0,0,253,9.88a2.63,2.63,0,0,1,.45-.11c.14,0,.17.11.17.25a17.46,17.46,0,0,0-.23,1.83c0,.28-.08,1.52-.14,1.86,0,.14-.09.31-.28.31s-.25-.14-.25-.39a3,3,0,0,0-.17-1c-.2-.5-.48-.84-1.88-1-.48-.06-3.43-.11-4-.11-.14,0-.19.08-.19.28v7.11c0,.2,0,.31.19.31.62,0,3.85,0,4.5-.06a2,2,0,0,0,1.35-.42c.2-.23.31-.37.45-.37s.19.06.19.22-.11.62-.22,2.05c0,.56-.11,1.69-.11,1.88s0,.53-.25.53a.22.22,0,0,1-.25-.25,7.73,7.73,0,0,0-.11-1c-.14-.56-.54-1-1.58-1.1-.53-.06-3.32-.09-4-.09-.14,0-.17.11-.17.28V23.1c0,1,0,3.54,0,4.36.05,1.94.5,2.36,3.37,2.36a7.15,7.15,0,0,0,2.64-.34c.73-.34,1.07-.93,1.26-2.08.06-.31.11-.42.31-.42s.23.23.23.51a22,22,0,0,1-.37,3.12c-.19.73-.45.73-1.52.73-2.11,0-3.65-.06-4.86-.08s-2.08-.08-2.92-.08c-.31,0-.93,0-1.6,0s-1.38.06-1.94.06c-.37,0-.56-.08-.56-.28s.11-.22.45-.22a4.61,4.61,0,0,0,1-.11c.56-.11.7-.73.82-1.55.14-1.18.14-3.4.14-6Z"/><path class="cls-3" d="M258.14,18.15c0-4.28,0-5.06-.06-6s-.34-1.43-1-1.57a4,4,0,0,0-1-.11c-.28,0-.45-.06-.45-.28s.22-.23.68-.23c1.07,0,2.84.09,3.66.09s2.36-.09,3.43-.09c.36,0,.59.06.59.23s-.17.28-.45.28a4.85,4.85,0,0,0-.84.08c-.76.14-1,.62-1,1.6s-.06,1.69-.06,6v1.72h9.06V18.15c0-4.28,0-5.06-.06-6s-.34-1.43-1-1.57a4,4,0,0,0-1-.11c-.28,0-.45-.06-.45-.28s.22-.23.67-.23c1.07,0,2.84.09,3.66.09S274.9,10,276,10c.36,0,.59.06.59.23s-.17.28-.45.28a4.85,4.85,0,0,0-.84.08c-.76.14-1,.62-1,1.6s-.06,1.69-.06,6V23.1c0,2.73,0,4.95.11,6.16.08.76.28,1.27,1.12,1.38a11.92,11.92,0,0,0,1.43.11c.31,0,.45.09.45.22s-.22.28-.53.28c-1.86,0-3.63-.08-4.39-.08s-2.42.08-3.54.08c-.37,0-.56-.08-.56-.28s.11-.22.45-.22a4.6,4.6,0,0,0,1-.11c.56-.11.73-.59.82-1.41.14-1.18.14-3.4.14-6.13V21.38h-9.06V23.1c0,2.73,0,4.95.11,6.16.08.76.28,1.27,1.12,1.38a11.92,11.92,0,0,0,1.43.11c.31,0,.45.09.45.22s-.22.28-.53.28c-1.86,0-3.63-.08-4.39-.08s-2.42.08-3.54.08c-.37,0-.56-.08-.56-.28s.11-.22.45-.22a4.6,4.6,0,0,0,1-.11c.56-.11.73-.59.82-1.41.14-1.18.14-3.4.14-6.13Z"/><path class="cls-3" d="M116.31,31.68a15.8,15.8,0,0,0,4.91-.63,1,1,0,0,0,.71-.79,25.9,25.9,0,0,0,.6-3.63c0-.22-.05-.41-.25-.41s-.27.11-.35.55a4.55,4.55,0,0,1-.93,1.8c-1.09,1.25-2.56,1.53-5,1.53-3.65,0-8.59-3.22-8.59-9.71,0-2.64.52-5.24,2.51-7.06a7.11,7.11,0,0,1,5.13-1.69c2.51,0,4.64.74,5.54,1.69a3.89,3.89,0,0,1,1.06,2.51c0,.38.05.6.27.6s.3-.22.33-.63,0-2,.08-2.94.14-1.28.14-1.5-.11-.3-.41-.33c-.82-.08-1.69-.33-2.73-.46a27,27,0,0,0-4-.27c-4.06,0-6.65,1.09-8.62,2.89a10.26,10.26,0,0,0-3.19,7.47,10.28,10.28,0,0,0,3.38,8C109.44,30.86,112.58,31.68,116.31,31.68Z"/><path class="cls-2" d="M114.49,53.42v-.3q-.35-.87-.57-1.5c-.26-.72-.44-1.2-.55-1.45a1.36,1.36,0,0,0-.44-.56,1.26,1.26,0,0,0-.74-.19h-.57v2.5a1.74,1.74,0,0,0,.15.94,1.11,1.11,0,0,0,.56.27v.3h-2.51v-.3a1,1,0,0,0,.56-.28,1.84,1.84,0,0,0,.14-.93v-2.5H110a1.23,1.23,0,0,0-.73.19,1.41,1.41,0,0,0-.45.57q-.18.38-.55,1.44c-.3.82-.49,1.32-.57,1.5v.3h-2v-.3a1.21,1.21,0,0,0,.77-.38,3.75,3.75,0,0,0,.52-.92l.53-1.21a2.47,2.47,0,0,1,1.45-1.52v0a1.62,1.62,0,0,1-.55-.53,6.75,6.75,0,0,1-.46-1.1,6,6,0,0,0-.49-1.12.56.56,0,0,0-.47-.29q-.42,0-.52.51h-.59v-1.3a2.68,2.68,0,0,1,.75-.13,1.54,1.54,0,0,1,1.25.45,5.11,5.11,0,0,1,.74,1.58,4.54,4.54,0,0,0,.7,1.53,1,1,0,0,0,.74.27h.53V46.7a2.08,2.08,0,0,0-.12-.91.92.92,0,0,0-.58-.3v-.3h2.51v.3a1,1,0,0,0-.58.32,2,2,0,0,0-.12.9v2.21h.53a1,1,0,0,0,.74-.28,4.67,4.67,0,0,0,.69-1.52,5.11,5.11,0,0,1,.76-1.6,1.57,1.57,0,0,1,1.25-.43,2.67,2.67,0,0,1,.74.13v1.3h-.6q-.1-.51-.52-.51a.57.57,0,0,0-.5.34,6.46,6.46,0,0,0-.45,1.07,5.44,5.44,0,0,1-.49,1.13,1.73,1.73,0,0,1-.53.5v0a2.39,2.39,0,0,1,1.45,1.52l.53,1.21a3.52,3.52,0,0,0,.56,1,1.27,1.27,0,0,0,.73.33v.3Zm7.59,0v-.3a1,1,0,0,0,.58-.32,2.05,2.05,0,0,0,.12-.89v-2.6q0-1.27,0-1.64h0l-3.43,4.23a1.94,1.94,0,0,0,.13.91,1,1,0,0,0,.57.29v.3h-2.52v-.3a1,1,0,0,0,.59-.32,2,2,0,0,0,.12-.89V46.7a1.7,1.7,0,0,0-.16-1,1.16,1.16,0,0,0-.56-.26v-.3h2.52v.3a1.1,1.1,0,0,0-.55.27,1.77,1.77,0,0,0-.15.95v2.66c0,.6,0,1.1,0,1.5h0l3.43-4.23a1.79,1.79,0,0,0-.12-.83,1,1,0,0,0-.58-.31v-.3h2.51v.3a1.1,1.1,0,0,0-.55.27,1.77,1.77,0,0,0-.15.95v5.22a1.94,1.94,0,0,0,.13.91,1,1,0,0,0,.57.29v.3Zm4,0v-.3a1.19,1.19,0,0,0,.5-.21.57.57,0,0,0,.17-.33,4,4,0,0,0,0-.66V46.69a4.58,4.58,0,0,0,0-.61.76.76,0,0,0-.1-.3.52.52,0,0,0-.18-.17,2.11,2.11,0,0,0-.39-.14v-.3h3.3a4.73,4.73,0,0,1,1.54.21,1.72,1.72,0,0,1,.87.61,1.75,1.75,0,0,1,.28,1,2,2,0,0,1-.2.91,1.94,1.94,0,0,1-.53.64,3.71,3.71,0,0,1-.84.47v.05a2.48,2.48,0,0,1,1.24.76,1.89,1.89,0,0,1,.42,1.23,2.26,2.26,0,0,1-.37,1.34,2,2,0,0,1-1,.75,4.84,4.84,0,0,1-1.6.23ZM129,48.88a2,2,0,0,0,1.4-.44,1.66,1.66,0,0,0,.49-1.29,1.55,1.55,0,0,0-.14-.69,1.13,1.13,0,0,0-.37-.44,1.56,1.56,0,0,0-.56-.23,3.43,3.43,0,0,0-.7-.07h-.6l-.56,0v3.13Zm-1.06,4c.29,0,.62,0,1,0a3,3,0,0,0,1.23-.2,1.26,1.26,0,0,0,.63-.59,2.14,2.14,0,0,0,.2-1,2,2,0,0,0-.21-1,1.32,1.32,0,0,0-.66-.57,3.26,3.26,0,0,0-1.23-.19h-.94v3.44Zm10.28.57v-.3a1,1,0,0,0,.58-.32,2.05,2.05,0,0,0,.12-.89v-2.6q0-1.27,0-1.64h0l-3.44,4.23a1.94,1.94,0,0,0,.13.91,1,1,0,0,0,.57.29v.3h-2.52v-.3a1,1,0,0,0,.59-.32,2,2,0,0,0,.12-.89V46.7a1.7,1.7,0,0,0-.16-1,1.17,1.17,0,0,0-.56-.26v-.3h2.52v.3a1.1,1.1,0,0,0-.55.27,1.77,1.77,0,0,0-.15.95v2.66c0,.6,0,1.1,0,1.5h0l3.44-4.23a1.79,1.79,0,0,0-.12-.83,1,1,0,0,0-.58-.31v-.3h2.51v.3a1.1,1.1,0,0,0-.55.27,1.77,1.77,0,0,0-.15.95v5.22a1.94,1.94,0,0,0,.13.91,1,1,0,0,0,.57.29v.3Zm13,2.17a5.54,5.54,0,0,0-.23-1.21,1.61,1.61,0,0,0-.42-.77,1,1,0,0,0-.63-.18h-3.61a.93.93,0,0,0-.89.55,4.54,4.54,0,0,0-.36,1.62h-.62V52.87H145a9.46,9.46,0,0,0,1.58-3.14,11.68,11.68,0,0,0,.61-3.45,1,1,0,0,0-.12-.59.64.64,0,0,0-.48-.22v-.3h4.94v.3a1.14,1.14,0,0,0-.56.26,1.77,1.77,0,0,0-.15,1v6.17h1v2.72Zm-1.49-9.88H148a14.67,14.67,0,0,1-2.1,7.15h3.79V45.71Zm6.54,7.81a3.52,3.52,0,0,1-1.32-.24,2.55,2.55,0,0,1-1-.74,3.54,3.54,0,0,1-.66-1.29,6.67,6.67,0,0,1-.23-1.88,5.89,5.89,0,0,1,.41-2.31,3.21,3.21,0,0,1,1.17-1.47,3.14,3.14,0,0,1,1.77-.5,3.27,3.27,0,0,1,1.81.47,2.88,2.88,0,0,1,1.1,1.4,6.95,6.95,0,0,1-.05,4.63A3.11,3.11,0,0,1,158,53a3.3,3.3,0,0,1-1.8.48Zm-2-4.32a5.9,5.9,0,0,0,.54,2.82,1.72,1.72,0,0,0,1.58,1,1.59,1.59,0,0,0,1.12-.42,2.55,2.55,0,0,0,.69-1.23,6.88,6.88,0,0,0,.23-1.89,7.47,7.47,0,0,0-.27-2.18A2.62,2.62,0,0,0,157.4,46a1.62,1.62,0,0,0-1.08-.39,1.67,1.67,0,0,0-.93.25,2,2,0,0,0-.65.72,3.66,3.66,0,0,0-.37,1.13,8.51,8.51,0,0,0-.12,1.48Zm12.41-3.85V47h-.6a2.62,2.62,0,0,0-.37-.83,1.29,1.29,0,0,0-.52-.44,1.74,1.74,0,0,0-.71-.13,1.66,1.66,0,0,0-1.11.41,2.72,2.72,0,0,0-.76,1.24,6.35,6.35,0,0,0-.28,2,7.72,7.72,0,0,0,.23,2,2.67,2.67,0,0,0,.68,1.26,1.53,1.53,0,0,0,1.1.42,2,2,0,0,0,.81-.14,1.28,1.28,0,0,0,.53-.45,3.57,3.57,0,0,0,.41-.91h.6v1.73a8.69,8.69,0,0,1-1.16.23,10.21,10.21,0,0,1-1.31.08,2.72,2.72,0,0,1-2.32-1,5.1,5.1,0,0,1-.78-3.1,5.86,5.86,0,0,1,.41-2.26,3.17,3.17,0,0,1,3.09-2,8.12,8.12,0,0,1,1,.06,7.94,7.94,0,0,1,1.06.21Zm1.06-.18h6.53v2.1h-.59a5.85,5.85,0,0,0-.26-.82,1.62,1.62,0,0,0-.28-.46.86.86,0,0,0-.31-.22,1.46,1.46,0,0,0-.5-.07h-.77V51.9a3.17,3.17,0,0,0,0,.57.93.93,0,0,0,.12.34.58.58,0,0,0,.22.19,2.11,2.11,0,0,0,.43.13v.3H169.6v-.3l.32-.09a.74.74,0,0,0,.23-.12.57.57,0,0,0,.14-.18,1.09,1.09,0,0,0,.09-.3,3.31,3.31,0,0,0,0-.55V45.71h-.76a1.73,1.73,0,0,0-.47.05.76.76,0,0,0-.34.23,1.67,1.67,0,0,0-.29.49,5.79,5.79,0,0,0-.24.8h-.6v-2.1Zm10.7,8.34a3.51,3.51,0,0,1-1.32-.24,2.55,2.55,0,0,1-1-.74,3.54,3.54,0,0,1-.66-1.29,6.68,6.68,0,0,1-.23-1.88,5.89,5.89,0,0,1,.41-2.31,3.21,3.21,0,0,1,1.17-1.47,3.14,3.14,0,0,1,1.77-.5,3.27,3.27,0,0,1,1.81.47,2.89,2.89,0,0,1,1.1,1.4,6.95,6.95,0,0,1-.05,4.63A3.11,3.11,0,0,1,180.21,53a3.3,3.3,0,0,1-1.8.48Zm-2-4.32A5.9,5.9,0,0,0,177,52a1.72,1.72,0,0,0,1.58,1,1.59,1.59,0,0,0,1.12-.42,2.55,2.55,0,0,0,.69-1.23,6.87,6.87,0,0,0,.23-1.89,7.47,7.47,0,0,0-.27-2.18,2.62,2.62,0,0,0-.73-1.26,1.62,1.62,0,0,0-1.08-.39,1.67,1.67,0,0,0-.93.25,2,2,0,0,0-.64.72,3.66,3.66,0,0,0-.37,1.13,8.51,8.51,0,0,0-.12,1.48Zm11.4,4.22v-.3a1,1,0,0,0,.58-.32,2,2,0,0,0,.12-.89v-2.6q0-1.27,0-1.64h0l-3.44,4.23a1.94,1.94,0,0,0,.13.91,1,1,0,0,0,.57.29v.3h-2.52v-.3a1,1,0,0,0,.59-.32,2,2,0,0,0,.12-.89V46.7a1.7,1.7,0,0,0-.16-1,1.16,1.16,0,0,0-.56-.26v-.3h2.52v.3a1.1,1.1,0,0,0-.55.27,1.77,1.77,0,0,0-.15.95v2.66c0,.6,0,1.1,0,1.5h0l3.44-4.23a1.79,1.79,0,0,0-.12-.83,1,1,0,0,0-.58-.31v-.3h2.51v.3a1.1,1.1,0,0,0-.55.27,1.77,1.77,0,0,0-.15.95v5.22a1.94,1.94,0,0,0,.13.91,1,1,0,0,0,.57.29v.3Zm1-10.46a1.19,1.19,0,0,1-.58,1.05,2.58,2.58,0,0,1-1.44.38,2.44,2.44,0,0,1-1.45-.37,1.23,1.23,0,0,1-.51-1.06v-.25h1V43a1.07,1.07,0,0,0,.21.74,1,1,0,0,0,.74.23.83.83,0,0,0,1-1v-.25h1V43Zm9.35,9c0,.23,0,.41,0,.52a1.07,1.07,0,0,0,.06.28.5.5,0,0,0,.27.29,2,2,0,0,0,.35.11v.3h-2.53v-.3a1.34,1.34,0,0,0,.47-.19.54.54,0,0,0,.18-.32,3.35,3.35,0,0,0,.05-.71V49.38h-3.36v2.53a5,5,0,0,0,0,.59.85.85,0,0,0,.09.29A.51.51,0,0,0,194,53a1.62,1.62,0,0,0,.4.14v.3h-2.54v-.3a1.19,1.19,0,0,0,.5-.21.57.57,0,0,0,.16-.33,4,4,0,0,0,0-.66V46.69a4.56,4.56,0,0,0,0-.61.75.75,0,0,0-.1-.3.51.51,0,0,0-.18-.17,2.11,2.11,0,0,0-.39-.14v-.3h2.54v.3a1.64,1.64,0,0,0-.38.13.55.55,0,0,0-.19.17.75.75,0,0,0-.1.3,4,4,0,0,0,0,.61v2.14H197V46.69A3.24,3.24,0,0,0,197,46a.56.56,0,0,0-.17-.3,1.35,1.35,0,0,0-.48-.2v-.3h2.53v.3a1.3,1.3,0,0,0-.47.19.54.54,0,0,0-.18.32,3.65,3.65,0,0,0,0,.7v5.22Zm5.38,1.61a3.52,3.52,0,0,1-1.32-.24,2.55,2.55,0,0,1-1-.74,3.54,3.54,0,0,1-.66-1.29,6.67,6.67,0,0,1-.23-1.88,5.89,5.89,0,0,1,.41-2.31,3.21,3.21,0,0,1,1.17-1.47,3.14,3.14,0,0,1,1.77-.5,3.27,3.27,0,0,1,1.81.47,2.88,2.88,0,0,1,1.1,1.4,6.95,6.95,0,0,1-.05,4.63A3.11,3.11,0,0,1,205.33,53a3.3,3.3,0,0,1-1.8.48Zm-2-4.32a5.9,5.9,0,0,0,.54,2.82,1.72,1.72,0,0,0,1.58,1,1.59,1.59,0,0,0,1.12-.42,2.55,2.55,0,0,0,.69-1.23,6.88,6.88,0,0,0,.23-1.89,7.47,7.47,0,0,0-.27-2.18A2.62,2.62,0,0,0,204.7,46a1.62,1.62,0,0,0-1.08-.39,1.67,1.67,0,0,0-.93.25,2,2,0,0,0-.65.72,3.66,3.66,0,0,0-.37,1.13,8.51,8.51,0,0,0-.12,1.48Zm8.55-4-.39,5.73h-.59l-.29-5.73ZM210,52v1.4h-1.21V52Z"/><path class="cls-2" d="M237.94,48.49h-5.29l-1,2.3a3.57,3.57,0,0,0-.37,1.27.74.74,0,0,0,.32.58A2.84,2.84,0,0,0,233,53v.4H227.9V53a2.54,2.54,0,0,0,1.2-.42,6.53,6.53,0,0,0,1.23-2.1l5.2-12h.38l0,.07,0-.07h.38l5.14,12.14a5.46,5.46,0,0,0,1.13,1.9A2.33,2.33,0,0,0,244,53v.4h-6.27V53a2.2,2.2,0,0,0,1.19-.29.74.74,0,0,0,.31-.6,4.45,4.45,0,0,0-.44-1.5l-.89-2.1Zm-2.6-6.19L233,47.69h4.64Z"/><path class="cls-3" d="M103.07.86q-11.13,7-22.57,13.35A504.19,504.19,0,0,0,0,64.84a506.38,506.38,0,0,1,78.56-40.3,26.21,26.21,0,0,1-45.8,24.7L30,50.76a31.76,31.76,0,0,0,52.65-35Q93,8.59,103.07.86Z"/><path class="cls-2" d="M37.28,33.36c2.63-1.65,5.31-3.27,8-4.88L28.61,34.29A26.15,26.15,0,0,1,71.43,8.78c-4,3.21-14.14,11.63-17.58,14.67q8.93-5.13,18.09-9.92c1.1-.59,2-1.08,2.69-1.42h0l2.76-1.43a31.72,31.72,0,0,0-53.7,31.53l.2-.13C28.34,39.11,32.8,36.17,37.28,33.36Z"/></g></g></svg>