<svg xmlns="http://www.w3.org/2000/svg" width="900" height="568.875" viewBox="0 0 900 568.875">
  <defs>
    <style>
      .cls-1 {
        fill: #ebebeb;
        fill-rule: evenodd;
      }
    </style>
  </defs>
  <path class="cls-1" d="M1125.01,46.591q-97.23,61.384-197.057,117.087C678.335,290.274,446.89,436.712,224.994,607.9A4414.069,4414.069,0,0,1,911.016,254.376c38.9,101.188,2.791,218.827-91.616,278.31-103.06,64.931-237.962,36.842-308.283-61.656-8.17,4.374-16.26,8.891-24.406,13.312,87.737,107.5,242.817,135.611,362.5,60.2,123.906-78.049,164.77-238.68,97.236-367.219Q1036.857,114.409,1125.01,46.591ZM550.518,331.733c22.994-14.483,46.331-28.659,69.727-42.783L474.838,339.889c-21.213-93.1,16.366-193.273,101.07-246.631,87.764-55.294,198.436-42.892,272.792,22.81C813.769,144.2,725.255,218.137,695.154,244.783q77.957-45.019,157.954-87.038c9.593-5.163,17.844-9.515,23.5-12.422a0.072,0.072,0,0,1,.035.06c8.047-4.168,16.042-8.416,24.121-12.526C811.891,32.816,662.358,8.13,546.074,81.387,434.489,151.7,390.257,289,431.878,409.508c0.584-.392,1.18-0.778,1.787-1.184C472.447,382.119,511.387,356.382,550.518,331.733Z" transform="translate(-225 -39.031)"/>
</svg>
