<svg xmlns="http://www.w3.org/2000/svg" width="100%" height="100%" viewBox="0 0 40 45">
<defs>
    <style>
      .cls-1 {
        fill: #535f75;
        stroke: #fff;
        stroke-linejoin: round;
        stroke-width: 3px;
        fill-rule: evenodd;
      }

      .cls-2 {
        fill: #fff;
      }
    </style>
  </defs>
  <path class="cls-1" d="M1050,54.994h0c-5.06-6.234-10.5-11.594-11.82-19.679a12.42,12.42,0,0,1,2.22-9.5l0.12-.107c0.01-.01.02-0.024,0.03-0.035,0.04-.044.05-0.061,0.09-0.107a2.24,2.24,0,0,1,.19-0.237c0.18-.2.26-0.262,0.41-0.455a12.393,12.393,0,0,1,5.26-3.316,10.375,10.375,0,0,1,1.4-.34c0.26-.041,1.31-0.156,1.44-0.216h1.31c0.14,0.06,1.19.175,1.45,0.216a10.756,10.756,0,0,1,1.4.34,12.359,12.359,0,0,1,5.25,3.316c0.16,0.194.23,0.255,0.42,0.455,0.08,0.094.11,0.133,0.19,0.237a0.618,0.618,0,0,0,.08.107,0.125,0.125,0,0,0,.04.035l0.11,0.107a12.42,12.42,0,0,1,2.22,9.5c-1.32,8.085-6.75,13.445-11.81,19.679h0Z" transform="translate(-1036.5 -19.5)"/>
  <circle class="cls-2" cx="13.5" cy="14.5" r="4"/>
</svg>
