<svg xmlns="http://www.w3.org/2000/svg" width="100%" height="100%" viewBox="0 0 31 31">
  <circle id="Rectangle_43_copy_9" data-name="Rectangle 43 copy 9" class="svg-inner" cx="15.5" cy="15.5" r="15.5"/>
  <path id="Rounded_Rectangle_6_copy" data-name="Rounded Rectangle 6 copy" class="svg-outer" d="M1224.13,1926.16a7.1,7.1,0,0,1-2.05.58,3.654,3.654,0,0,0,1.57-2.02,6.881,6.881,0,0,1-2.27.88,3.5,3.5,0,0,0-2.6-1.15,3.618,3.618,0,0,0-3.57,3.66,3.837,3.837,0,0,0,.09.83,10.05,10.05,0,0,1-7.35-3.82,3.751,3.751,0,0,0-.48,1.83,3.691,3.691,0,0,0,1.59,3.05,3.544,3.544,0,0,1-1.62-.46v0.04a3.648,3.648,0,0,0,2.86,3.59,3.614,3.614,0,0,1-.94.12,3.71,3.71,0,0,1-.67-0.06,3.592,3.592,0,0,0,3.33,2.54,7.047,7.047,0,0,1-4.43,1.56,5.972,5.972,0,0,1-.85-0.05,9.9,9.9,0,0,0,5.47,1.65c6.56,0,10.15-5.57,10.15-10.41,0-.15,0-0.31-0.01-0.47a7.283,7.283,0,0,0,1.78-1.89h0Z" transform="translate(-1199 -1915)"/>
</svg>
