<svg xmlns="http://www.w3.org/2000/svg"><defs><style>.cls-1{fill:#fff;fill-rule:evenodd}</style><style>.cls-1{fill:#fff;fill-rule:evenodd}</style><style>.cls-1{fill:#535f75;stroke:#fff;stroke-linejoin:round;stroke-width:3px;fill-rule:evenodd}.cls-2{fill:#fff}</style></defs><symbol id="laptop" viewBox="0 0 50 35"><path class="cls-1" d="M0 27h47.4c1.84 0-.974 3-2.813 3H3.347A3.2 3.2 0 0 1 0 27zm5.015-.988H42V4.205a4.2 4.2 0 0 0-4.183-4.2H9.2a4.2 4.2 0 0 0-4.183 4.2v21.807zm3-23H39v21H8.012v-21zm32.294 25.243v.645h4.216l-.535-.65h-3.681z"/></symbol><symbol id="mobile" viewBox="0 0 20 35"><path class="cls-1" d="M2.126.005h15.747A2.093 2.093 0 0 1 20 2.04v29.923A2.1 2.1 0 0 1 17.873 34H2.126A2.093 2.093 0 0 1 0 31.963V2.04A2.09 2.09 0 0 1 2.131.005zm-.135 4V29h16.017V4H1.991zM9.5 30h1a1.5 1.5 0 0 1 0 3h-1a1.5 1.5 0 0 1 0-3z"/></symbol><symbol id="pin_header" viewBox="0 0 40 45"><path class="cls-1" d="M13.5 35.494C8.44 29.26 3 23.9 1.68 15.815a12.42 12.42 0 0 1 2.22-9.5l.12-.107c.01-.01.02-.024.03-.035.04-.044.05-.061.09-.107a2.24 2.24 0 0 1 .19-.237c.18-.2.26-.262.41-.455A12.393 12.393 0 0 1 10 2.058a10.375 10.375 0 0 1 1.4-.34c.26-.041 1.31-.156 1.44-.216h1.31c.14.06 1.19.175 1.45.216a10.756 10.756 0 0 1 1.4.34 12.359 12.359 0 0 1 5.25 3.316c.16.194.23.255.42.455.08.094.11.133.19.237a.618.618 0 0 0 .08.107.125.125 0 0 0 .04.035l.11.107a12.42 12.42 0 0 1 2.22 9.5C23.99 23.9 18.56 29.26 13.5 35.494z"/><circle class="cls-2" cx="13.5" cy="14.5" r="4"/></symbol></svg>