<svg xmlns="http://www.w3.org/2000/svg" width="100%" height="100%" viewBox="0 0 440 123.03">
  <path fill="#fff" class="cls-1" d="M942.712,1457.54H901.043a9.025,9.025,0,0,0-9.043,9.01v91.97a9.025,9.025,0,0,0,9.043,9.01h41.669a9.026,9.026,0,0,0,9.047-9.01v-91.97A9.026,9.026,0,0,0,942.712,1457.54Zm-20.834,103.38a6.005,6.005,0,1,1,6.024-6.01A6.015,6.015,0,0,1,921.878,1560.92Zm22.776-14.93H899.1v-67.84h45.553v67.84Zm41.231-72.06-2.532,7.64H980.1l8.285-24.3h3.8l8.318,24.3h-3.362l-2.605-7.64h-8.648Zm8-2.45-2.423-6.99c-0.508-1.59-.87-3.03-1.232-4.44H990.12c-0.326,1.41-.724,2.92-1.2,4.4l-2.388,7.03h7.344Zm9.879-7.36,3.44,9.78c0.58,1.62,1.05,3.06,1.41,4.5h0.11c0.4-1.44.9-2.88,1.48-4.5l3.4-9.78h3.33l-6.87,17.45h-3.04l-6.66-17.45h3.4Zm27.83,13.27a29.258,29.258,0,0,0,.25,4.18h-2.86l-0.29-2.19h-0.1a6.479,6.479,0,0,1-5.36,2.59,4.975,4.975,0,0,1-5.35-5.01c0-4.22,3.76-6.53,10.52-6.49v-0.36c0-1.44-.4-4.08-3.97-4.04a8.458,8.458,0,0,0-4.6,1.3l-0.73-2.13a11.414,11.414,0,0,1,5.79-1.51c5.4,0,6.7,3.64,6.7,7.14v6.52Zm-3.11-4.72c-3.48-.07-7.42.54-7.42,3.93a2.782,2.782,0,0,0,2.96,3.03,4.435,4.435,0,0,0,4.31-2.92,3.257,3.257,0,0,0,.15-1.01v-3.03Zm9.54-11.75a2.035,2.035,0,0,1,.08-4.07,1.948,1.948,0,0,1,2.03,2.01,2,2,0,0,1-2.06,2.06h-0.05Zm-1.51,20.65v-17.45h3.18v17.45h-3.18Zm8.28-25.59h3.19v25.59h-3.19v-25.59Zm20.63,21.41a29.258,29.258,0,0,0,.25,4.18h-2.86l-0.29-2.19h-0.11a6.459,6.459,0,0,1-5.35,2.59,4.984,4.984,0,0,1-5.36-5.01c0-4.22,3.77-6.53,10.53-6.49v-0.36c0-1.44-.4-4.08-3.98-4.04a8.449,8.449,0,0,0-4.59,1.3l-0.73-2.13a11.414,11.414,0,0,1,5.79-1.51c5.39,0,6.7,3.64,6.7,7.14v6.52Zm-3.11-4.72c-3.48-.07-7.42.54-7.42,3.93a2.782,2.782,0,0,0,2.96,3.03,4.435,4.435,0,0,0,4.31-2.92,3.257,3.257,0,0,0,.15-1.01v-3.03Zm8.02-16.69h3.19v10.92h0.07a6.514,6.514,0,0,1,5.97-3.17c4.34,0,7.38,3.6,7.38,8.87,0,6.27-3.98,9.37-7.88,9.37a6.265,6.265,0,0,1-5.86-3.28h-0.08l-0.18,2.88h-2.75c0.11-1.19.14-2.95,0.14-4.5v-21.09Zm3.19,18.6a6.145,6.145,0,0,0,.11,1.15,4.946,4.946,0,0,0,4.78,3.72c3.36,0,5.31-2.71,5.31-6.71,0-3.53-1.81-6.52-5.21-6.52a5.032,5.032,0,0,0-4.81,3.89,4.917,4.917,0,0,0-.18,1.33v3.14Zm17.22-18.6h3.18v25.59h-3.18v-25.59Zm10.09,17.41c0.08,4.29,2.79,6.06,5.98,6.06a12.09,12.09,0,0,0,4.85-.87l0.57,2.24a14.385,14.385,0,0,1-5.86,1.11c-5.35,0-8.61-3.57-8.61-8.79,0-5.3,3.15-9.45,8.25-9.45,5.71,0,7.2,5.02,7.2,8.22a8.382,8.382,0,0,1-.11,1.52Zm9.3-2.27c0.04-1.98-.83-5.16-4.38-5.16-3.25,0-4.63,2.96-4.88,5.16h9.26Zm21.46,10.85c-4.7,0-8.4-3.46-8.4-8.98,0-5.84,3.88-9.26,8.69-9.26,5.03,0,8.43,3.64,8.43,8.94,0,6.49-4.53,9.3-8.69,9.3h-0.03Zm0.11-2.38c3.04,0,5.31-2.85,5.31-6.81,0-2.96-1.48-6.67-5.24-6.67-3.73,0-5.35,3.46-5.35,6.78,0,3.82,2.17,6.7,5.24,6.7h0.04Zm12.45-10.74c0-1.84-.04-3.28-0.15-4.73h2.82l0.18,2.85h0.07a6.5,6.5,0,0,1,5.79-3.24c2.42,0,6.19,1.44,6.19,7.43v10.41h-3.19v-10.06c0-2.8-1.04-5.19-4.05-5.19a4.6,4.6,0,0,0-4.27,3.25,4.854,4.854,0,0,0-.21,1.48v10.52h-3.18v-12.72Zm31.22-8.9v4.17h4.55v2.42h-4.55v9.41c0,2.16.61,3.39,2.38,3.39a5.8,5.8,0,0,0,1.85-.22l0.14,2.42a8.858,8.858,0,0,1-2.82.43,4.594,4.594,0,0,1-3.44-1.33c-0.86-.98-1.23-2.53-1.23-4.58v-9.52h-2.71v-2.42h2.71v-3.2Zm7.96-3.97h3.18v10.88h0.07a5.694,5.694,0,0,1,2.28-2.23,6.183,6.183,0,0,1,3.26-.9c2.35,0,6.11,1.44,6.11,7.46v10.38h-3.18v-10.02c0-2.84-1.05-5.19-4.06-5.19a4.592,4.592,0,0,0-4.26,3.17,3.873,3.873,0,0,0-.22,1.52v10.52h-3.18v-25.59Zm21.7,17.41c0.08,4.29,2.79,6.06,5.97,6.06a12.146,12.146,0,0,0,4.86-.87l0.57,2.24a14.385,14.385,0,0,1-5.86,1.11c-5.35,0-8.61-3.57-8.61-8.79,0-5.3,3.15-9.45,8.25-9.45,5.71,0,7.2,5.02,7.2,8.22a8.382,8.382,0,0,1-.11,1.52Zm9.3-2.27c0.04-1.98-.83-5.16-4.38-5.16-3.25,0-4.63,2.96-4.88,5.16h9.26Zm15.85-10.2a2.035,2.035,0,0,1,.07-4.07,1.948,1.948,0,0,1,2.03,2.01,2,2,0,0,1-2.07,2.06h-0.03Zm-1.52,20.65v-17.45h3.18v17.45h-3.18Zm8.39-23.97a32.508,32.508,0,0,1,6.05-.5c3.11,0,5.39.72,6.83,2.02a6.539,6.539,0,0,1,2.18,5.08,7.03,7.03,0,0,1-1.92,5.19c-1.67,1.77-4.38,2.67-7.46,2.67a10.937,10.937,0,0,1-2.53-.22v9.73h-3.15V1457.6Zm3.15,11.68a10.887,10.887,0,0,0,2.61.25c3.83,0,6.11-1.87,6.11-5.15,0-3.25-2.28-4.8-5.75-4.8a15.723,15.723,0,0,0-2.97.26v9.44Zm15.63-13.3h3.19v10.88h0.07a5.694,5.694,0,0,1,2.28-2.23,6.209,6.209,0,0,1,3.26-.9c2.35,0,6.11,1.44,6.11,7.46v10.38h-3.18v-10.02c0-2.84-1.05-5.19-4.06-5.19a4.592,4.592,0,0,0-4.26,3.17,3.7,3.7,0,0,0-.22,1.52v10.52h-3.19v-25.59Zm27.03,25.99c-4.7,0-8.39-3.46-8.39-8.98,0-5.84,3.87-9.26,8.68-9.26,5.03,0,8.43,3.64,8.43,8.94,0,6.49-4.52,9.3-8.68,9.3h-0.04Zm0.11-2.38c3.04,0,5.32-2.85,5.32-6.81,0-2.96-1.48-6.67-5.25-6.67-3.72,0-5.35,3.46-5.35,6.78,0,3.82,2.17,6.7,5.24,6.7h0.04Zm12.45-10.74c0-1.84-.04-3.28-0.15-4.73h2.82l0.18,2.85h0.08a6.488,6.488,0,0,1,5.79-3.24c2.42,0,6.18,1.44,6.18,7.43v10.41h-3.18v-10.06c0-2.8-1.05-5.19-4.05-5.19a4.672,4.672,0,0,0-4.49,4.73v10.52h-3.18v-12.72Zm21.7,4.54c0.08,4.29,2.79,6.06,5.98,6.06a12.035,12.035,0,0,0,4.84-.87l0.58,2.24a14.385,14.385,0,0,1-5.86,1.11c-5.35,0-8.61-3.57-8.61-8.79,0-5.3,3.15-9.45,8.25-9.45,5.71,0,7.2,5.02,7.2,8.22a8.382,8.382,0,0,1-.11,1.52Zm9.3-2.27c0.04-1.98-.83-5.16-4.37-5.16-3.26,0-4.64,2.96-4.89,5.16h9.26Zm-325.54,26.91-21.457,62.92h9.824l6.406-19.32h20.777l6.58,19.32h10.1l-21.55-62.92h-10.68Zm5.09,10.35c0.72,2.8,1.5,5.72,2.51,8.87l5.78,16.68H997.805l5.705-16.79C1004.38,1514.42,1005.2,1511.48,1005.97,1508.38Zm54.9,5.96c-6.51,0-11.72,2.5-15.19,7.26l-0.38-6.26h-8.74l0.05,0.8c0.26,3.9.37,8.19,0.37,14.35v48.5h9.55v-22.63a16.83,16.83,0,0,0,13.06,5.59,19.712,19.712,0,0,0,14.48-6.14c4.19-4.4,6.4-10.74,6.4-18.3,0-6.69-1.92-12.47-5.56-16.72A18.2,18.2,0,0,0,1060.87,1514.34Zm-2.38,7.88c8.52,0,12.33,7.86,12.33,15.65,0,10.05-4.86,16.29-12.69,16.29a11.583,11.583,0,0,1-11.26-8.83,12.225,12.225,0,0,1-.34-3.09v-7.65a14.078,14.078,0,0,1,.31-2.35c0.04-.26.09-0.52,0.13-0.77A12.1,12.1,0,0,1,1058.49,1522.22Zm51.58-7.88c-6.5,0-11.72,2.5-15.19,7.26l-0.38-6.26h-8.74l0.05,0.8c0.26,3.9.37,8.19,0.37,14.35v48.5h9.56v-22.63a16.793,16.793,0,0,0,13.05,5.59,19.75,19.75,0,0,0,14.49-6.14c4.18-4.4,6.39-10.74,6.39-18.3,0-6.69-1.92-12.47-5.56-16.72A18.182,18.182,0,0,0,1110.07,1514.34Zm-2.37,7.88c8.51,0,12.32,7.86,12.32,15.65,0,10.05-4.86,16.29-12.69,16.29a11.591,11.591,0,0,1-11.26-8.83,12.272,12.272,0,0,1-.33-3.09v-7.65a14.112,14.112,0,0,1,.3-2.36c0.05-.25.1-0.51,0.14-0.76A12.081,12.081,0,0,1,1107.7,1522.22Zm64.01,2.47c-8.91-3.44-11.77-6.15-11.77-11.15,0-4.21,3.36-8.45,10.86-8.45a21.832,21.832,0,0,1,11.22,2.8l0.81,0.5,2.69-7.94-0.53-.31c-1.6-.94-6.16-3.11-13.92-3.11-12.18,0-20.69,7.17-20.69,17.42,0,8.28,5.33,14.06,16.77,18.2,8.11,3.02,11.13,6.11,11.13,11.42,0,6-4.66,9.72-12.15,9.72a26.139,26.139,0,0,1-13.77-3.89l-0.83-.53-2.56,8.13,0.47,0.31c3.6,2.4,10.39,4.14,16.14,4.14,16.43,0,22.25-9.98,22.25-18.52C1187.83,1534.62,1183.16,1529.19,1171.71,1524.69Zm33.32-20.19-9.37,2.93v7.91h-6.86v7.61h6.86v23.3c0,5.64,1.08,9.59,3.31,12.08a12.273,12.273,0,0,0,9.24,3.62,22.469,22.469,0,0,0,7.39-1.14l0.53-.19-0.46-7.62-0.91.28a14.479,14.479,0,0,1-4.45.51c-3.7,0-5.28-2.33-5.28-7.81v-23.03h11.53v-7.61h-11.53V1504.5Zm35.2,9.84c-13.36,0-22.7,9.94-22.7,24.17,0,13.8,9.03,23.44,21.97,23.44h0.09c10.94,0,22.71-7.59,22.71-24.26,0-6.78-2.11-12.6-6.09-16.84A21.31,21.31,0,0,0,1240.23,1514.34Zm-0.27,7.52c8.6,0,12.51,8.34,12.51,16.1,0,9.55-5.34,16.47-12.69,16.47h-0.09c-7.25,0-12.51-6.81-12.51-16.19C1227.18,1530.08,1231.13,1521.86,1239.96,1521.86Zm51.6-7.08-0.57-.14a9.19,9.19,0,0,0-2.38-.3,13.635,13.635,0,0,0-11.98,7.66l-0.28-6.66h-8.57l0.05,0.8c0.26,3.77.36,8,.36,13.71l-0.09,31.1h9.56v-24.26a24.837,24.837,0,0,1,.26-3.69c1.08-5.83,5.03-9.6,10.06-9.6a24.558,24.558,0,0,1,2.56.16l1.02,0.11v-8.89Zm21.49-.53c-12.72,0-21.61,10.12-21.61,24.62,0,13.96,8.84,22.99,22.52,22.99a36.941,36.941,0,0,0,15.13-2.89l0.57-.26-1.83-7.1-0.8.32a29.589,29.589,0,0,1-11.97,2.14c-4.16,0-13.73-1.37-14.31-13.8l30.84,0.09,0.12-.61a20.576,20.576,0,0,0,.29-3.97C1332,1525.85,1327.04,1514.25,1313.05,1514.25Zm-0.64,7.24a9.429,9.429,0,0,1,7.01,2.67c2.75,2.78,3.23,6.89,3.29,8.86h-21.79C1301.81,1527.52,1305.26,1521.49,1312.41,1521.49Z" transform="translate(-892 -1455.97)"/>
</svg>
