<svg xmlns="http://www.w3.org/2000/svg" xmlns:xlink="http://www.w3.org/1999/xlink" width="100%" height="100%" viewBox="0 0 31 31">                                                                                     
  <circle id="Rectangle_43_copy_3" data-name="Rectangle 43 copy 3" class="svg-outer" cx="15.5" cy="15.5" r="15.5"/>
  <path class="svg-inner" d="M1095.64,1925.27a1.021,1.021,0,1,0,.98,1.02,1,1,0,0,0-.98-1.02h0Zm-4.29.81a4.75,4.75,0,1,0,4.54,4.74,4.648,4.648,0,0,0-4.54-4.74h0Zm0,2.18a2.562,2.562,0,1,0,2.45,2.56,2.5,2.5,0,0,0-2.45-2.56h0Zm-3.4-6.01a4.587,4.587,0,0,0-4.47,4.68v7.71a4.594,4.594,0,0,0,4.47,4.68h6.83a4.594,4.594,0,0,0,4.47-4.68v-7.71a4.587,4.587,0,0,0-4.47-4.68h-6.83Zm0.12,1.88a2.988,2.988,0,0,0-2.91,3.04v7.3a2.99,2.99,0,0,0,2.91,3.05h6.55a2.992,2.992,0,0,0,2.92-3.05v-7.3a2.989,2.989,0,0,0-2.92-3.04h-6.55Z" transform="translate(-1076 -1915)"/>
</svg>
