<svg xmlns="http://www.w3.org/2000/svg" width="100%" height="100%" viewBox="0 0 31 31">
  <circle id="Rectangle_43_copy_7" data-name="Rectangle 43 copy 7" class="svg-outer" cx="15.5" cy="15.5" r="15.5"/>
  <path id="Rounded_Rectangle_6_copy_3" data-name="Rounded Rectangle 6 copy 3" class="svg-inner" d="M1132.51,1931.25a4.127,4.127,0,1,0-4-4.12A4.073,4.073,0,0,0,1132.51,1931.25Zm0-5.83a1.706,1.706,0,1,1-1.65,1.71A1.686,1.686,0,0,1,1132.51,1925.42Zm1.62,9.19a7.348,7.348,0,0,0,2.33-.99,1.226,1.226,0,0,0,.37-1.66,1.149,1.149,0,0,0-1.62-.38,4.965,4.965,0,0,1-5.39,0,1.147,1.147,0,0,0-1.62.38,1.217,1.217,0,0,0,.37,1.66,7.3,7.3,0,0,0,2.32.99l-2.24,2.31a1.239,1.239,0,0,0,0,1.7,1.137,1.137,0,0,0,1.66,0l2.2-2.26,2.2,2.26a1.137,1.137,0,0,0,1.66,0,1.22,1.22,0,0,0,0-1.7Z" transform="translate(-1117 -1915)"/>
</svg>
