<svg id="POINTER" xmlns="http://www.w3.org/2000/svg" width="25" height="35" viewBox="0 0 38 53">
<defs>
    <style>
      .cls-1 {
        fill: #fecc09;
      }

      .cls-2 {
        fill: #535f75;
        fill-rule: evenodd;
      }
    </style>
  </defs>
  <circle class="cls-1" cx="19.5" cy="18.5" r="11.5"/>
  <path id="Forma_1" data-name="Forma 1" class="cls-2" d="M34,0C23.523,0,15,8.754,15,19.513a19.466,19.466,0,0,0,1.662,7.964C21.412,38.151,30.52,49.421,33.2,52.621a1.039,1.039,0,0,0,1.6,0c2.678-3.2,11.785-14.468,16.537-25.144A19.466,19.466,0,0,0,53,19.513C53,8.754,44.476,0,34,0Zm0,29.646A10.016,10.016,0,0,1,24.13,19.512a9.873,9.873,0,1,1,19.739,0A10.016,10.016,0,0,1,34,29.647Z" transform="translate(-15)"/>
</svg>
