<?xml version="1.0" encoding="utf-8"?>
<!-- Generator: Adobe Illustrator 20.1.0, SVG Export Plug-In . SVG Version: 6.00 Build 0)  -->
<svg version="1.1" id="_x31_" xmlns="http://www.w3.org/2000/svg" xmlns:xlink="http://www.w3.org/1999/xlink" x="0px" y="0px"
	 viewBox="0 0 205.4 51.1" style="enable-background:new 0 0 205.4 51.1;" xml:space="preserve">
<style type="text/css">
	.st0{fill-rule:evenodd;clip-rule:evenodd;fill:#535F75;}
	.st1{fill-rule:evenodd;clip-rule:evenodd;fill:#FEFEFE;}
	.st2{fill-rule:evenodd;clip-rule:evenodd;fill:#FECC09;}
</style>
<rect x="-0.1" class="st0" width="205.5" height="51.1"/>
<g>
	<path class="st1" d="M29.4,26.3c2.1-1.3,4.2-2.6,6.3-3.8l-13.1,4.6C20.7,18.7,24,9.7,31.7,4.9c7.9-5,17.9-3.9,24.6,2.1
		c-3.2,2.5-11.2,9.2-13.9,11.6c4.7-2.7,9.5-5.3,14.3-7.8c0.9-0.5,1.6-0.9,2.1-1.1c0,0,0,0,0,0c0.7-0.4,1.4-0.8,2.2-1.1
		c-8-9-21.5-11.2-32-4.6c-10.1,6.3-14.1,18.7-10.3,29.5c0.1,0,0.1-0.1,0.2-0.1C22.4,30.8,25.9,28.5,29.4,26.3z"/>
	<path class="st2" d="M81.3,0.7c-5.9,3.7-11.8,7.2-17.8,10.5C41,22.6,20,35.8,0,51.1c19.9-12.5,40.6-23.1,62-31.8
		c3.5,9.1,0.3,19.7-8.3,25c-9.3,5.8-21.5,3.3-27.8-5.5c-0.7,0.4-1.5,0.8-2.2,1.2c7.9,9.7,21.9,12.2,32.7,5.4
		c11.2-7,14.9-21.5,8.8-33C70.6,8.7,76,4.8,81.3,0.7z"/>
	<rect x="81.2" y="30.3" class="st1" width="69.1" height="1.6"/>
	<path class="st1" d="M82.7,41.6H84c0.1,0,0.3,0,0.4,0c0.1,0,0.2,0,0.2-0.1c0.1,0,0.1-0.1,0.2-0.1c0.1-0.1,0.1-0.1,0.2-0.2
		c0.1-0.1,0.1-0.2,0.1-0.4c0-0.2,0.1-0.4,0.2-0.7h0.5l-0.1,2h-4.5v-0.2c0.2-0.1,0.3-0.1,0.4-0.2c0.1-0.1,0.1-0.2,0.1-0.3
		c0-0.1,0-0.3,0-0.5v-4.3c0-0.2,0-0.4,0-0.5c0-0.1,0-0.2-0.1-0.2c0-0.1-0.1-0.1-0.2-0.1c-0.1,0-0.2-0.1-0.3-0.1v-0.2h2.1v0.2
		c-0.1,0-0.3,0.1-0.3,0.1c-0.1,0-0.1,0.1-0.2,0.1c0,0.1-0.1,0.1-0.1,0.2c0,0.1,0,0.3,0,0.5V41.6L82.7,41.6z M88.2,40.8
		c0,0.2,0,0.4,0,0.5c0,0.1,0,0.2,0.1,0.2c0,0.1,0.1,0.1,0.2,0.1c0.1,0,0.2,0.1,0.3,0.1v0.2h-2.1v-0.2c0.2-0.1,0.3-0.1,0.4-0.2
		c0.1-0.1,0.1-0.2,0.1-0.3c0-0.1,0-0.3,0-0.5v-4.3c0-0.2,0-0.4,0-0.5c0-0.1,0-0.2-0.1-0.2c0-0.1-0.1-0.1-0.2-0.1
		c-0.1,0-0.2-0.1-0.3-0.1v-0.2h2.1v0.2c-0.1,0-0.3,0.1-0.3,0.1c-0.1,0-0.1,0.1-0.2,0.1c0,0.1-0.1,0.1-0.1,0.2c0,0.1,0,0.3,0,0.5
		V40.8L88.2,40.8z M91.7,35.3v0.2c-0.2,0-0.3,0.1-0.3,0.1c-0.1,0-0.1,0.1-0.2,0.2c0,0.1-0.1,0.2-0.1,0.3c0,0.1,0,0.2,0,0.4
		c0,0.1,0.1,0.3,0.1,0.4l1.2,4.1l1.4-4.1c0-0.1,0-0.1,0.1-0.2c0-0.1,0-0.1,0.1-0.2c0-0.1,0-0.1,0-0.2c0-0.1,0-0.1,0-0.1
		c0-0.2,0-0.3-0.1-0.4c-0.1-0.1-0.2-0.2-0.5-0.2v-0.2h2.1v0.2c-0.1,0-0.2,0.1-0.3,0.1c-0.1,0.1-0.2,0.2-0.2,0.3
		c-0.1,0.1-0.2,0.4-0.3,0.7l-2.1,5.5h-0.7l-1.7-5.6c-0.1-0.3-0.2-0.5-0.2-0.6c-0.1-0.1-0.1-0.2-0.2-0.3c-0.1-0.1-0.2-0.1-0.3-0.1
		v-0.2H91.7L91.7,35.3z M100.7,35.3v1.5h-0.5c-0.1-0.2-0.1-0.3-0.2-0.4c-0.1-0.1-0.1-0.2-0.2-0.3c-0.1-0.1-0.1-0.1-0.2-0.2
		c-0.1,0-0.1-0.1-0.2-0.1c-0.1,0-0.2,0-0.3,0h-1.6v2.6h1.1c0.1,0,0.3,0,0.3-0.1c0.1,0,0.2-0.1,0.2-0.2c0.1-0.1,0.1-0.3,0.2-0.5h0.5
		v1.9h-0.5c0-0.2-0.1-0.3-0.2-0.5c-0.1-0.1-0.1-0.2-0.2-0.2c-0.1,0-0.2-0.1-0.4-0.1h-1.1v2.9h1.5c0.2,0,0.3,0,0.4,0
		c0.1,0,0.2-0.1,0.3-0.1c0.1-0.1,0.1-0.2,0.2-0.3c0.1-0.1,0.1-0.2,0.1-0.3c0-0.1,0.1-0.3,0.2-0.5h0.5l-0.1,1.7H96v-0.2
		c0.2-0.1,0.3-0.1,0.4-0.2c0.1-0.1,0.1-0.2,0.1-0.3c0-0.1,0-0.3,0-0.5v-4.3c0-0.2,0-0.4,0-0.5c0-0.1,0-0.2-0.1-0.2
		c0-0.1-0.1-0.1-0.2-0.1c-0.1,0-0.2-0.1-0.3-0.1v-0.2H100.7L100.7,35.3z M108.2,36.5l-1.6,5.6h-0.8l-1.5-5.4
		c-0.1-0.2-0.1-0.4-0.2-0.6c-0.1-0.1-0.1-0.3-0.1-0.3c-0.1-0.1-0.1-0.1-0.2-0.2c-0.1,0-0.1-0.1-0.3-0.1v-0.2h2.1v0.2
		c-0.2,0-0.3,0.1-0.4,0.2c-0.1,0.1-0.1,0.2-0.1,0.3c0,0.1,0,0.3,0,0.4c0,0.2,0.1,0.3,0.1,0.5l1,3.9l1.6-5.7h0.8l1.3,5.7l1.2-3.8
		c0.1-0.5,0.2-0.8,0.2-1c0-0.2,0-0.3-0.1-0.4c-0.1-0.1-0.2-0.2-0.4-0.2v-0.2h2v0.2c-0.1,0-0.2,0.1-0.2,0.1c-0.1,0-0.1,0.1-0.2,0.2
		c-0.1,0.1-0.1,0.2-0.2,0.3c-0.1,0.1-0.1,0.4-0.2,0.6l-1.8,5.4h-0.7L108.2,36.5L108.2,36.5z M118.2,35.3v1.5h-0.5
		c-0.1-0.2-0.1-0.3-0.2-0.4c-0.1-0.1-0.1-0.2-0.2-0.3c-0.1-0.1-0.1-0.1-0.2-0.2c-0.1,0-0.1-0.1-0.2-0.1c-0.1,0-0.2,0-0.3,0H115v2.6
		h1.1c0.1,0,0.3,0,0.3-0.1c0.1,0,0.2-0.1,0.2-0.2c0.1-0.1,0.1-0.3,0.2-0.5h0.5v1.9h-0.5c0-0.2-0.1-0.3-0.2-0.5
		c-0.1-0.1-0.1-0.2-0.2-0.2c-0.1,0-0.2-0.1-0.4-0.1H115v2.9h1.6c0.2,0,0.3,0,0.4,0c0.1,0,0.2-0.1,0.3-0.1c0.1-0.1,0.1-0.2,0.2-0.3
		c0.1-0.1,0.1-0.2,0.1-0.3c0-0.1,0.1-0.3,0.2-0.5h0.5l-0.1,1.7h-4.6v-0.2c0.2-0.1,0.3-0.1,0.4-0.2c0.1-0.1,0.1-0.2,0.1-0.3
		c0-0.1,0-0.3,0-0.5v-4.3c0-0.2,0-0.4,0-0.5c0-0.1,0-0.2-0.1-0.2c0-0.1-0.1-0.1-0.2-0.1c-0.1,0-0.2-0.1-0.3-0.1v-0.2H118.2
		L118.2,35.3z M122.6,42.1v-0.2c0.2,0,0.3-0.1,0.4-0.1c0.1,0,0.1-0.1,0.2-0.2c0-0.1,0.1-0.2,0.1-0.3c0-0.1,0-0.2,0-0.4
		c0-0.1-0.1-0.3-0.1-0.4l-0.2-0.6h-2.3l-0.2,0.5c-0.1,0.2-0.1,0.4-0.2,0.6c0,0.1,0,0.2,0,0.3c0,0.2,0.1,0.3,0.2,0.4
		c0.1,0.1,0.3,0.2,0.5,0.2v0.2h-2.1v-0.2c0.2,0,0.3-0.1,0.5-0.3c0.1-0.2,0.3-0.5,0.4-0.8l2.1-5.5h0.8l1.7,5.6
		c0.1,0.3,0.2,0.5,0.2,0.6c0.1,0.1,0.1,0.2,0.2,0.3c0.1,0.1,0.2,0.1,0.4,0.2v0.2H122.6L122.6,42.1z M120.7,39.4h2.1l-0.9-3.2
		L120.7,39.4L120.7,39.4z M127.1,41.6h1.3c0.1,0,0.3,0,0.4,0c0.1,0,0.2,0,0.2-0.1c0.1,0,0.1-0.1,0.2-0.1c0.1-0.1,0.1-0.1,0.2-0.2
		c0.1-0.1,0.1-0.2,0.1-0.4c0-0.2,0.1-0.4,0.2-0.7h0.5l-0.1,2h-4.5v-0.2c0.2-0.1,0.3-0.1,0.4-0.2c0.1-0.1,0.1-0.2,0.1-0.3
		c0-0.1,0-0.3,0-0.5v-4.3c0-0.2,0-0.4,0-0.5c0-0.1,0-0.2-0.1-0.2c0-0.1-0.1-0.1-0.2-0.1c-0.1,0-0.2-0.1-0.3-0.1v-0.2h2.1v0.2
		c-0.1,0-0.2,0.1-0.3,0.1c-0.1,0-0.1,0.1-0.2,0.1c0,0.1-0.1,0.1-0.1,0.2c0,0.1,0,0.3,0,0.5V41.6L127.1,41.6z M129.7,35.3V37h0.5
		c0.1-0.3,0.1-0.5,0.2-0.7c0.1-0.2,0.1-0.3,0.2-0.4c0.1-0.1,0.2-0.2,0.3-0.2c0.1,0,0.2,0,0.4,0h0.6v5.1c0,0.2,0,0.4,0,0.5
		c0,0.1,0,0.2-0.1,0.2c0,0.1-0.1,0.1-0.1,0.1c0,0-0.1,0.1-0.2,0.1c-0.1,0-0.2,0.1-0.3,0.1v0.2h2.3v-0.2c-0.2,0-0.3-0.1-0.4-0.1
		c-0.1,0-0.1-0.1-0.2-0.2c0-0.1-0.1-0.2-0.1-0.3c0-0.1,0-0.3,0-0.5v-5.1h0.6c0.2,0,0.3,0,0.4,0.1c0.1,0,0.2,0.1,0.3,0.2
		c0.1,0.1,0.2,0.2,0.2,0.4c0.1,0.2,0.1,0.4,0.2,0.7h0.5v-1.7H129.7L129.7,35.3z M141.2,40.8c0,0.2,0,0.3,0,0.4c0,0.1,0,0.2,0,0.2
		c0,0.1,0.1,0.1,0.1,0.1c0,0,0.1,0.1,0.1,0.1c0.1,0,0.2,0.1,0.3,0.1v0.2h-2.1v-0.2c0.2,0,0.3-0.1,0.4-0.2c0.1-0.1,0.1-0.1,0.2-0.3
		c0-0.1,0-0.3,0-0.6v-2.1h-2.8v2.1c0,0.2,0,0.4,0,0.5c0,0.1,0,0.2,0.1,0.2c0,0.1,0.1,0.1,0.2,0.1c0.1,0,0.2,0.1,0.3,0.1v0.2H136
		v-0.2c0.2-0.1,0.3-0.1,0.4-0.2c0.1-0.1,0.1-0.2,0.1-0.3c0-0.1,0-0.3,0-0.5v-4.3c0-0.2,0-0.4,0-0.5c0-0.1,0-0.2-0.1-0.2
		c0-0.1-0.1-0.1-0.2-0.1c-0.1,0-0.2-0.1-0.3-0.1v-0.2h2.1v0.2c-0.1,0-0.3,0.1-0.3,0.1c-0.1,0-0.1,0.1-0.2,0.1c0,0.1-0.1,0.1-0.1,0.2
		c0,0.1,0,0.3,0,0.5v1.8h2.8v-1.8c0-0.3,0-0.5,0-0.6c0-0.1-0.1-0.2-0.1-0.2c-0.1-0.1-0.2-0.1-0.4-0.2v-0.2h2.1v0.2
		c-0.2,0-0.3,0.1-0.4,0.2c-0.1,0.1-0.1,0.1-0.1,0.3c0,0.1,0,0.3,0,0.6V40.8L141.2,40.8z M144.8,39.2l-1.4-2.6
		c-0.2-0.3-0.3-0.5-0.4-0.7c-0.1-0.1-0.2-0.2-0.3-0.3c-0.1-0.1-0.2-0.1-0.3-0.2v-0.2h2.1v0.2c-0.3,0-0.5,0.2-0.5,0.4
		c0,0.1,0,0.2,0.1,0.3c0,0.1,0.1,0.3,0.2,0.5l1,1.9l1-1.7c0.1-0.2,0.2-0.4,0.3-0.6c0.1-0.1,0.1-0.3,0.1-0.4c0-0.1,0-0.2-0.1-0.3
		c-0.1-0.1-0.2-0.1-0.3-0.1v-0.2h1.9v0.2c-0.1,0-0.3,0.1-0.4,0.2c-0.1,0.1-0.2,0.2-0.3,0.4c-0.1,0.1-0.3,0.4-0.5,0.8l-1.4,2.4v1.6
		c0,0.2,0,0.3,0,0.5c0,0.1,0.1,0.2,0.1,0.3c0,0.1,0.1,0.1,0.2,0.2c0.1,0,0.2,0.1,0.4,0.1v0.2h-2.3v-0.2c0.2,0,0.3-0.1,0.4-0.1
		c0.1,0,0.1-0.1,0.2-0.2c0-0.1,0.1-0.2,0.1-0.3c0-0.1,0-0.3,0-0.5V39.2L144.8,39.2z M150.2,35.3l-0.3,4.7h-0.5l-0.2-4.7H150.2
		L150.2,35.3z M150.1,40.9v1.2h-1v-1.2H150.1z"/>
	<path class="st2" d="M84.8,25.2c1.2,0,2.5-0.2,3.6-0.9c1.6-1.1,2.1-2.6,2.1-3.9c0-2.1-1-3.7-3.7-5.7l-0.6-0.5
		c-1.9-1.4-2.4-2.2-2.4-3.2c0-1.3,1-2.3,2.7-2.3c1.5,0,2.1,0.7,2.5,1.1c0.5,0.6,0.6,1.3,0.6,1.5c0,0.3,0.1,0.4,0.2,0.4
		c0.2,0,0.2-0.2,0.2-0.7c0-1.8,0.1-2.4,0.1-2.7C90,8.1,89.9,8,89.7,8c-0.6-0.2-1.5-0.4-3-0.4c-3.1,0-5.2,1.8-5.2,4.2
		c0,1.8,0.9,3.4,3.3,5.3l1,0.8c1.9,1.5,2.2,2.5,2.2,3.6c0,1.2-1,2.6-3,2.6c-1.4,0-2.7-0.6-3.2-2.3c-0.1-0.4-0.2-0.9-0.2-1.1
		c0-0.2,0-0.4-0.2-0.4c-0.2,0-0.2,0.2-0.3,0.6c0,0.4-0.1,1.7-0.1,2.9c0,0.5,0.1,0.6,0.4,0.8C82.5,25.1,83.5,25.2,84.8,25.2
		L84.8,25.2z M95.8,18.4c0,2.1,0,3.8-0.1,4.8c-0.1,0.7-0.2,1.1-0.7,1.2c-0.2,0-0.5,0.1-0.8,0.1c-0.3,0-0.4,0.1-0.4,0.2
		c0,0.2,0.2,0.2,0.4,0.2c0.9,0,2.3-0.1,2.8-0.1c0.6,0,2,0.1,3.5,0.1c0.2,0,0.4-0.1,0.4-0.2c0-0.1-0.1-0.2-0.4-0.2
		c-0.3,0-0.8,0-1.1-0.1c-0.7-0.1-0.8-0.6-0.9-1.2c-0.1-1-0.1-2.7-0.1-4.8v-9c0-0.2,0.1-0.4,0.2-0.4c0.2-0.1,0.5-0.1,0.9-0.1
		c0.5,0,1.4,0.1,2.2,0.9c1.3,1.1,1.3,2.6,1.3,3.4c0,2.3-1.8,3.7-3,3.7c-0.5,0-0.6,0.1-0.6,0.2c0,0.2,0.2,0.2,0.3,0.2
		c0.1,0,0.4,0,0.5,0c3.2,0,5.5-2.2,5.5-5.4c0-1.2-0.6-2.2-1.1-2.7c-0.4-0.3-1.4-1.3-4.2-1.3c-1,0-2.3,0.1-3.3,0.1
		c-0.6,0-2-0.1-3.2-0.1c-0.3,0-0.5,0-0.5,0.2c0,0.2,0.1,0.2,0.4,0.2c0.3,0,0.7,0,0.9,0.1c0.7,0.2,0.9,0.5,1,1.3c0,0.7,0,1.3,0,4.8
		V18.4L95.8,18.4z M110.5,18.4c0,2.2,0,4-0.1,4.9c-0.1,0.7-0.2,1-0.7,1.1c-0.2,0-0.5,0.1-0.8,0.1c-0.3,0-0.4,0.1-0.4,0.2
		c0,0.2,0.2,0.2,0.4,0.2c0.9,0,2.3-0.1,2.8-0.1c0.6,0,2,0.1,3.5,0.1c0.2,0,0.4-0.1,0.4-0.2c0-0.1-0.1-0.2-0.4-0.2
		c-0.3,0-0.8,0-1.1-0.1c-0.7-0.1-0.8-0.5-0.9-1.1c-0.1-1-0.1-2.7-0.1-4.9v-4c0-3.4,0-4,0-4.8c0-0.8,0.2-1.2,0.8-1.3
		c0.3,0,0.4-0.1,0.7-0.1s0.4,0,0.4-0.2c0-0.1-0.2-0.2-0.5-0.2c-0.9,0-2.2,0.1-2.7,0.1c-0.7,0-2.1-0.1-2.9-0.1c-0.4,0-0.5,0-0.5,0.2
		c0,0.2,0.1,0.2,0.4,0.2c0.3,0,0.6,0,0.8,0.1c0.5,0.1,0.7,0.5,0.8,1.3c0,0.7,0,1.3,0,4.8V18.4L110.5,18.4z M123.7,18.4
		c0,2.1,0,3.8-0.1,4.8c-0.1,0.7-0.2,1.1-0.7,1.2c-0.2,0-0.5,0.1-0.8,0.1c-0.3,0-0.4,0.1-0.4,0.2c0,0.2,0.2,0.2,0.4,0.2
		c0.9,0,2.3-0.1,2.8-0.1c0.6,0,2,0.1,3.5,0.1c0.2,0,0.4-0.1,0.4-0.2c0-0.1-0.1-0.2-0.4-0.2c-0.3,0-0.8,0-1.1-0.1
		c-0.7-0.1-0.8-0.6-0.9-1.2c-0.1-1-0.1-2.7-0.1-4.8V9.2l2.8,0.1c2,0,2.6,0.7,2.7,1.3l0,0.2c0,0.3,0.1,0.4,0.2,0.4
		c0.1,0,0.2-0.1,0.2-0.4c0-0.6,0.1-2.1,0.1-2.6c0-0.3,0-0.5-0.2-0.5c-0.1,0-0.3,0-0.6,0.1c-0.3,0-0.8,0.1-1.6,0.1h-8.9
		c-0.7,0-1.6,0-2.2-0.1c-0.6,0-0.8-0.3-1-0.3c-0.1,0-0.2,0.1-0.3,0.4c0,0.2-0.5,2.2-0.5,2.6c0,0.2,0,0.4,0.2,0.4
		c0.1,0,0.2-0.1,0.2-0.3c0-0.2,0.2-0.4,0.4-0.8c0.3-0.5,0.9-0.6,2.2-0.7l3.3-0.1V18.4L123.7,18.4z M141.7,19h-5
		c-0.1,0-0.2,0-0.2,0.2l-1.2,3.2c-0.2,0.6-0.3,1.1-0.3,1.4c0,0.4,0.2,0.7,0.9,0.7h0.3c0.3,0,0.3,0,0.3,0.2c0,0.2-0.1,0.2-0.4,0.2
		c-0.7,0-1.7-0.1-2.4-0.1c-0.2,0-1.5,0.1-2.7,0.1c-0.3,0-0.4,0-0.4-0.2c0-0.1,0.1-0.2,0.3-0.2c0.2,0,0.5,0,0.7,0
		c1-0.1,1.5-0.9,1.9-2l5.6-14.1c0.3-0.7,0.4-0.9,0.6-0.9c0.2,0,0.3,0.2,0.6,0.7c0.5,1.2,4.1,10.4,5.6,13.8c0.9,2,1.5,2.3,2,2.5
		c0.3,0.1,0.7,0.1,0.9,0.1c0.2,0,0.3,0,0.3,0.2c0,0.2-0.2,0.2-1,0.2c-0.8,0-2.5,0-4.2,0c-0.4,0-0.7,0-0.7-0.2c0-0.1,0.1-0.2,0.3-0.2
		c0.2,0,0.3-0.2,0.2-0.5l-1.8-4.8C141.8,19.1,141.8,19,141.7,19L141.7,19z M137.1,17.9h4.1c0.1,0,0.1-0.1,0.1-0.1l-2-5.6
		c0-0.1,0-0.2-0.1-0.2c-0.1,0-0.1,0.1-0.1,0.2l-2.1,5.5C137,17.8,137,17.9,137.1,17.9L137.1,17.9z M151.9,22.7
		c-0.1,0.8-0.3,1.6-0.9,1.8c-0.3,0.1-0.5,0.1-0.7,0.1c-0.2,0-0.4,0-0.4,0.2c0,0.2,0.2,0.2,0.4,0.2c0.7,0,1.8-0.1,2.2-0.1
		c0.4,0,1.4,0.1,2.4,0.1c0.3,0,0.5,0,0.5-0.2c0-0.1-0.2-0.2-0.3-0.2c-0.2,0-0.5,0-0.9-0.1c-0.4-0.1-0.7-0.3-0.7-0.7
		c0-0.4,0-0.7,0.1-1.1l1.2-8.9h0.1c0.8,1.7,2.1,4.5,2.3,5c0.3,0.6,2,4.1,2.6,5.1c0.4,0.7,0.6,1.1,0.8,1.1c0.2,0,0.3-0.2,0.8-1.3
		l4.9-10.2h0.1l1.3,9.9c0.1,0.6,0,0.9-0.1,1c-0.2,0.1-0.2,0.1-0.2,0.2c0,0.1,0.1,0.2,0.7,0.2c0.9,0.1,4,0.1,4.6,0.1
		c0.3,0,0.6-0.1,0.6-0.2c0-0.1-0.2-0.2-0.4-0.2c-0.3,0-0.7,0-1.4-0.2c-0.7-0.2-0.9-0.9-1.1-2.3l-2-13.9c-0.1-0.5-0.2-0.7-0.4-0.7
		c-0.2,0-0.3,0.2-0.5,0.5l-6.1,12.8l-6.1-12.7c-0.3-0.6-0.4-0.7-0.6-0.7c-0.2,0-0.3,0.2-0.4,0.6L151.9,22.7L151.9,22.7z M175.8,18.4
		c0,2.1,0,3.8-0.1,4.8c-0.1,0.7-0.2,1.1-0.7,1.2c-0.2,0-0.5,0.1-0.8,0.1c-0.3,0-0.4,0.1-0.4,0.2c0,0.2,0.2,0.2,0.4,0.2
		c0.4,0,1,0,1.6,0c0.5,0,1,0,1.3,0c0.7,0,1.4,0,2.3,0.1c1,0,2.2,0.1,3.9,0.1c0.9,0,1.1,0,1.2-0.6c0.1-0.4,0.3-2,0.3-2.5
		c0-0.2,0-0.4-0.2-0.4c-0.2,0-0.2,0.1-0.2,0.3c-0.2,0.9-0.4,1.4-1,1.7c-0.6,0.3-1.5,0.3-2.1,0.3c-2.3,0-2.7-0.3-2.7-1.9
		c0-0.7,0-2.7,0-3.5v-1.8c0-0.1,0-0.2,0.1-0.2c0.5,0,2.8,0,3.2,0.1c0.8,0.1,1.1,0.4,1.3,0.9c0.1,0.3,0.1,0.6,0.1,0.8
		c0,0.1,0,0.2,0.2,0.2c0.2,0,0.2-0.2,0.2-0.4c0-0.2,0.1-1.1,0.1-1.5c0.1-1.1,0.2-1.5,0.2-1.6c0-0.1-0.1-0.2-0.2-0.2
		c-0.1,0-0.2,0.1-0.4,0.3c-0.2,0.2-0.5,0.3-1.1,0.3c-0.5,0-3.1,0-3.6,0c-0.1,0-0.2-0.1-0.2-0.2V9.3c0-0.2,0-0.2,0.2-0.2
		c0.4,0,2.8,0,3.2,0.1c1.1,0.1,1.3,0.4,1.5,0.8c0.1,0.3,0.1,0.7,0.1,0.8c0,0.2,0,0.3,0.2,0.3c0.2,0,0.2-0.1,0.2-0.2
		c0-0.3,0.1-1.3,0.1-1.5c0.1-1,0.2-1.3,0.2-1.5c0-0.1,0-0.2-0.1-0.2c-0.1,0-0.2,0.1-0.4,0.1c-0.2,0-0.5,0.1-1,0.1
		c-0.4,0-4.9,0-5.6,0c-0.3,0-0.8,0-1.4,0c-0.6,0-1.2,0-1.8,0c-0.3,0-0.5,0-0.5,0.2c0,0.2,0.1,0.2,0.4,0.2c0.3,0,0.7,0,0.9,0.1
		c0.7,0.2,0.9,0.5,1,1.3c0,0.7,0,1.3,0,4.8V18.4L175.8,18.4z M190.2,12.4L190.2,12.4c0.5,0.4,3,3.2,5.4,5.7c2.3,2.3,5.2,5.3,6.6,6.6
		c0.2,0.2,0.5,0.5,0.8,0.5c0.2,0,0.3-0.2,0.3-0.7l0.2-14.2c0-1.3,0.2-1.7,0.8-1.9c0.3-0.1,0.4-0.1,0.7-0.1c0.3,0,0.4-0.1,0.4-0.2
		c0-0.2-0.2-0.2-0.5-0.2c-1.1,0-2,0.1-2.2,0.1c-0.5,0-1.6-0.1-2.7-0.1c-0.3,0-0.6,0-0.6,0.2c0,0.1,0.1,0.2,0.4,0.2
		c0.3,0,0.9,0,1.2,0.1c0.5,0.2,0.7,0.7,0.8,2l0.2,10.1h-0.1c-0.4-0.4-3.4-3.6-4.9-5.1c-3.3-3.3-6.7-6.9-7-7.2
		c-0.4-0.4-0.6-0.7-0.8-0.7c-0.2,0-0.3,0.3-0.3,0.8l-0.2,13.3c0,2-0.1,2.6-0.7,2.8c-0.3,0.1-0.7,0.1-1,0.1c-0.2,0-0.4,0-0.4,0.2
		c0,0.2,0.2,0.2,0.5,0.2c1.2,0,2.2-0.1,2.4-0.1c0.4,0,1.3,0.1,2.8,0.1c0.3,0,0.5,0,0.5-0.2c0-0.1-0.1-0.2-0.4-0.2
		c-0.4,0-0.8,0-1.2-0.2c-0.4-0.2-0.7-0.7-0.8-2.5L190.2,12.4z"/>
	<path class="st1" d="M156.2,37.4c0,1.4,0,2.7-0.1,3.3c-0.1,0.5-0.1,0.8-0.5,0.8c-0.1,0-0.3,0.1-0.6,0.1c-0.2,0-0.3,0.1-0.3,0.2
		c0,0.1,0.1,0.2,0.3,0.2c0.3,0,0.7,0,1.1,0c0.4,0,0.7,0,0.9,0c0.3,0,0.8,0,1.4,0c0.6,0,1.1,0.1,1.3,0.1c3,0,4.3-1.7,4.3-3.4
		c0-1.8-1.7-3-3-3.4c0.9-0.6,1.8-1.5,1.8-2.7c0-0.8-0.5-2.3-3.4-2.3c-0.6,0-1.6,0-2.4,0c-0.3,0-1.3,0-2.2,0c-0.2,0-0.4,0-0.4,0.1
		c0,0.1,0.1,0.2,0.3,0.2c0.2,0,0.5,0,0.6,0.1c0.5,0.1,0.7,0.3,0.7,0.8c0,0.5,0,0.9,0,3.3V37.4L156.2,37.4z M158.3,31.1
		c0-0.2,0-0.2,0.1-0.3c0.2,0,0.5,0,0.7,0c1.4,0,2,1.3,2,2.4c0,0.8-0.3,1.3-0.7,1.7c-0.3,0.2-0.7,0.3-1.3,0.3c-0.4,0-0.6,0-0.8-0.1
		c-0.1,0-0.1,0-0.1-0.2V31.1L158.3,31.1z M158.3,36c0-0.1,0-0.1,0.1-0.1h0.7c0.6,0,1.1,0.2,1.4,0.4c1.2,0.8,1.5,2.1,1.5,2.8
		c0,1.7-1.1,2.2-2,2.2c-0.4,0-0.7,0-1.2-0.2c-0.5-0.2-0.6-0.5-0.6-1.5V36L158.3,36z M172,38h-3.8c-0.1,0-0.1,0-0.1,0.1l-0.9,2.1
		c-0.2,0.4-0.2,0.8-0.2,1c0,0.3,0.1,0.4,0.6,0.4h0.2c0.2,0,0.2,0.1,0.2,0.2c0,0.1-0.1,0.2-0.3,0.2c-0.5,0-1.3-0.1-1.8-0.1
		c-0.2,0-1,0.1-1.9,0.1c-0.2,0-0.3,0-0.3-0.2c0-0.1,0.1-0.2,0.2-0.2c0.1,0,0.3,0,0.5,0c0.7-0.1,1-0.6,1.3-1.4l4.2-9.8
		c0.2-0.4,0.3-0.6,0.5-0.6c0.2,0,0.3,0.1,0.5,0.5c0.4,0.9,3.1,7.3,4.1,9.6c0.6,1.4,1.1,1.6,1.4,1.7c0.2,0,0.4,0.1,0.6,0.1
		c0.1,0,0.2,0.1,0.2,0.2c0,0.1-0.1,0.2-0.7,0.2c-0.6,0-1.7,0-3.1,0c-0.3,0-0.5,0-0.5-0.1c0-0.1,0-0.1,0.2-0.2c0.1,0,0.2-0.2,0.1-0.3
		l-1.3-3.1C172.1,38,172.1,38,172,38L172,38z M168.5,37.2h3.1c0.1,0,0.1,0,0.1-0.1l-1.5-4c0-0.1,0-0.1-0.1-0.1
		c-0.1,0-0.1,0.1-0.1,0.1l-1.6,4C168.4,37.1,168.5,37.2,168.5,37.2L168.5,37.2z M180.5,33.4L180.5,33.4c0.4,0.3,2.1,2.2,3.8,3.9
		c1.7,1.6,3.7,3.6,4.7,4.5c0.2,0.2,0.4,0.3,0.7,0.3c0.1,0,0.3-0.1,0.3-0.5l0.2-9.9c0-0.9,0.1-1.2,0.6-1.3c0.2-0.1,0.3-0.1,0.5-0.1
		c0.2,0,0.3-0.1,0.3-0.2c0-0.1-0.1-0.1-0.4-0.1c-0.8,0-1.4,0-1.6,0c-0.4,0-1.2,0-2.1,0c-0.2,0-0.4,0-0.4,0.1c0,0.1,0.1,0.2,0.3,0.2
		c0.2,0,0.6,0,0.8,0.1c0.4,0.1,0.5,0.4,0.6,1.4l0.2,7h-0.1c-0.2-0.2-2.4-2.4-3.5-3.5c-2.4-2.3-4.8-4.8-5-5c-0.3-0.3-0.5-0.5-0.7-0.5
		c-0.2,0-0.3,0.2-0.3,0.5l-0.1,9.3c0,1.4-0.1,1.8-0.5,1.9c-0.2,0.1-0.5,0.1-0.7,0.1c-0.1,0-0.3,0.1-0.3,0.2c0,0.1,0.1,0.2,0.4,0.2
		c0.8,0,1.6-0.1,1.7-0.1c0.3,0,1,0.1,2.1,0.1c0.2,0,0.4,0,0.4-0.2c0-0.1-0.1-0.2-0.3-0.2c-0.3,0-0.6,0-0.8-0.1
		c-0.3-0.1-0.5-0.5-0.5-1.7L180.5,33.4L180.5,33.4z M195.6,34.7c0-2.4,0-2.8,0-3.3c0-0.6,0.2-0.8,0.6-0.8c0.2,0,0.3-0.1,0.5-0.1
		c0.1,0,0.2-0.1,0.2-0.2c0-0.1-0.1-0.1-0.3-0.1c-0.5,0-1.7,0-2.1,0c-0.4,0-1.4,0-2.3,0c-0.2,0-0.4,0-0.4,0.1c0,0.1,0.1,0.2,0.3,0.2
		c0.2,0,0.5,0,0.6,0.1c0.5,0.1,0.7,0.3,0.7,0.8c0,0.5,0,0.9,0,3.3v2.8c0,1.4,0,2.7-0.1,3.3c-0.1,0.5-0.1,0.8-0.5,0.8
		c-0.1,0-0.3,0.1-0.6,0.1c-0.2,0-0.3,0.1-0.3,0.2c0,0.1,0.1,0.2,0.3,0.2c0.6,0,1.7-0.1,2-0.1c0.4,0,1.6,0.1,2.5,0.1
		c0.2,0,0.3-0.1,0.3-0.2c0-0.1-0.1-0.2-0.2-0.2c-0.2,0-0.6,0-0.8-0.1c-0.4-0.1-0.6-0.4-0.6-0.8c0-0.7,0-1.9,0-3.3V36h0.1l0.2,0.2
		c0.3,0.5,3.5,4.1,4.2,4.7c0.7,0.6,1.2,0.9,2.1,1c0.3,0,0.6,0,1.1,0h1.4c0.3,0,0.4-0.1,0.4-0.2c0-0.1-0.1-0.2-0.2-0.2
		c-0.2,0-0.5,0-1-0.2c-0.9-0.3-1.5-1-2.2-1.7c-0.6-0.6-3.8-3.9-4.4-4.6c0.5-0.6,2.9-2.9,3.4-3.3c0.7-0.6,1.2-1,1.7-1.2
		c0.3-0.1,0.7-0.2,0.9-0.2c0.1,0,0.2-0.1,0.2-0.2c0-0.1-0.1-0.1-0.3-0.1c-0.5,0-1.4,0-1.9,0c-0.4,0-1.3,0-1.7,0
		c-0.2,0-0.3,0-0.3,0.1c0,0.1,0.1,0.1,0.2,0.2c0.1,0,0.2,0.1,0.2,0.3c0,0.3-0.3,0.6-0.8,1.2c-0.5,0.5-2.8,2.9-3.4,3.4h-0.1V34.7z"/>
</g>
</svg>
