<?xml version="1.0" encoding="utf-8"?>
<!-- Generator: Adobe Illustrator 20.1.0, SVG Export Plug-In . SVG Version: 6.00 Build 0)  -->
<svg version="1.1" id="_x31_" xmlns="http://www.w3.org/2000/svg" xmlns:xlink="http://www.w3.org/1999/xlink" x="0px" y="0px"
	 viewBox="0 0 219.3 51.2" style="enable-background:new 0 0 219.3 51.2;" xml:space="preserve">
<style type="text/css">
	.st0{fill-rule:evenodd;clip-rule:evenodd;fill:#535F75;}
	.st1{fill-rule:evenodd;clip-rule:evenodd;fill:#FEFEFE;}
	.st2{fill-rule:evenodd;clip-rule:evenodd;fill:#FECC09;}
</style>
<rect class="st0" width="219.3" height="51.2"/>
<g>
	<rect x="82.7" y="30.4" class="st1" width="82.9" height="1.7"/>
	<path class="st1" d="M210,35.7L210,35.7c0.6-0.6,2.9-2.9,3.4-3.4c0.5-0.5,0.8-0.9,0.8-1.1c0-0.2-0.1-0.3-0.2-0.3
		c-0.1,0-0.2-0.1-0.2-0.2c0-0.1,0.1-0.1,0.3-0.1c0.3,0,1.2,0,1.6,0c0.5,0,1.4,0,1.9,0c0.2,0,0.3,0,0.3,0.1c0,0.1-0.1,0.2-0.2,0.2
		c-0.2,0-0.6,0.1-0.9,0.2c-0.5,0.2-1,0.5-1.7,1.1c-0.5,0.5-2.9,2.7-3.4,3.3c0.6,0.7,3.7,4,4.3,4.6c0.7,0.6,1.3,1.3,2.2,1.6
		c0.5,0.2,0.8,0.2,1,0.2c0.1,0,0.2,0.1,0.2,0.2c0,0.1-0.1,0.2-0.4,0.2h-1.4c-0.5,0-0.8,0-1.1,0c-0.8-0.1-1.4-0.4-2.1-1
		c-0.7-0.6-3.7-4.1-4.1-4.6l-0.2-0.2H210v1.4c0,1.4,0,2.6,0,3.3c0,0.4,0.2,0.7,0.6,0.8c0.2,0,0.6,0.1,0.8,0.1c0.1,0,0.2,0.1,0.2,0.2
		c0,0.1-0.1,0.2-0.3,0.2c-0.9,0-2-0.1-2.4-0.1c-0.4,0-1.4,0.1-2,0.1c-0.2,0-0.3-0.1-0.3-0.2c0-0.1,0.1-0.2,0.3-0.2
		c0.2,0,0.4,0,0.6-0.1c0.3-0.1,0.4-0.4,0.5-0.8c0.1-0.6,0.1-1.9,0.1-3.3V35c0-2.3,0-2.8,0-3.3c0-0.5-0.2-0.7-0.7-0.8
		c-0.1,0-0.4-0.1-0.6-0.1c-0.2,0-0.3-0.1-0.3-0.2c0-0.1,0.1-0.1,0.4-0.1c0.8,0,1.8,0,2.2,0c0.4,0,1.5,0,2,0c0.2,0,0.3,0,0.3,0.1
		c0,0.1-0.1,0.2-0.2,0.2c-0.2,0-0.3,0-0.5,0.1c-0.4,0.1-0.6,0.3-0.6,0.8c0,0.5,0,0.9,0,3.3V35.7z"/>
	<path class="st1" d="M171.5,34.6c0-2,0-2.4,0-2.8c0-0.5-0.2-0.8-0.6-0.9c-0.2,0-0.4-0.1-0.6-0.1c-0.2,0-0.3,0-0.3-0.2
		c0-0.1,0.1-0.1,0.4-0.1c0.7,0,1.7,0,2.2,0c2,0,2.7,0,2.8,0h0.6c0.7,0,1.2,0,1.5-0.1c0.3,0,0.5-0.1,0.6-0.1c0.2,0,0.2,0.1,0.2,0.3
		c0,0.3-0.1,1.3-0.1,1.7c0,0.1-0.1,0.2-0.2,0.2c-0.2,0-0.2-0.1-0.2-0.3l0-0.2c0-0.4-0.6-0.8-2.6-0.8l-1.4,0
		c-0.1,0.1-0.1,0.2-0.1,0.3c0,0.5,0,0.9,0,3.3v0.3l0,0v0h0.2c0.1,0,0.3,0,0.6,0c0.2,0,0.4,0,0.5,0c2.1,0,4.4,1,4.4,3.4
		c0,1.6-1.2,3.2-4,3.3c0,0-0.1,0-0.1,0l-0.1,0h0h0h0h0l0,0h0c-1.1,0-2.1,0-2.5,0c-0.4,0-1.5,0-2.2,0c-0.2,0-0.3,0-0.3-0.2
		c0-0.1,0.1-0.1,0.3-0.1c0.3,0,0.5,0,0.6-0.1c0.3-0.1,0.4-0.3,0.5-0.8l0,0c0,0,0-0.1,0-0.1c0.1-0.6,0.1-1.9,0.1-3.3V35L171.5,34.6
		L171.5,34.6L171.5,34.6z M173.6,36.1v1.6c0,1.3,0,2.5,0.1,3.2c0.1,0.2,0.2,0.3,0.4,0.4c0.4,0.2,0.8,0.2,1.1,0.2
		c0.8,0,1.9-0.5,1.9-2.2c0-0.7-0.3-1.9-1.5-2.7c-0.3-0.2-0.8-0.4-1.4-0.4L173.6,36.1L173.6,36.1z"/>
	<path class="st1" d="M195.1,35.1c0-2.3,0-2.8,0-3.2c0-0.5-0.2-0.8-0.5-0.9c-0.2,0-0.4-0.1-0.6-0.1c-0.2,0-0.2,0-0.2-0.2
		c0-0.1,0.1-0.1,0.4-0.1c0.6,0,1.5,0,2,0c0.4,0,1.3,0,1.9,0c0.2,0,0.3,0,0.3,0.1c0,0.1-0.1,0.2-0.2,0.2c-0.2,0-0.3,0-0.5,0
		c-0.4,0.1-0.5,0.3-0.6,0.9c0,0.5,0,0.9,0,3.2V36h4.9v-0.9c0-2.3,0-2.8,0-3.2c0-0.5-0.2-0.8-0.5-0.9c-0.2,0-0.4-0.1-0.6-0.1
		c-0.2,0-0.2,0-0.2-0.2c0-0.1,0.1-0.1,0.4-0.1c0.6,0,1.5,0,2,0c0.4,0,1.3,0,1.9,0c0.2,0,0.3,0,0.3,0.1c0,0.1-0.1,0.2-0.2,0.2
		c-0.2,0-0.3,0-0.5,0c-0.4,0.1-0.5,0.3-0.6,0.9c0,0.5,0,0.9,0,3.2v2.7c0,1.5,0,2.7,0.1,3.4c0,0.4,0.2,0.7,0.6,0.8
		c0.2,0,0.6,0.1,0.8,0.1c0.2,0,0.2,0,0.2,0.1c0,0.1-0.1,0.2-0.3,0.2c-1,0-2,0-2.4,0c-0.4,0-1.3,0-1.9,0c-0.2,0-0.3,0-0.3-0.2
		c0-0.1,0.1-0.1,0.2-0.1c0.2,0,0.4,0,0.6-0.1c0.3-0.1,0.4-0.3,0.4-0.8c0.1-0.6,0.1-1.9,0.1-3.3v-0.9H197v0.9c0,1.5,0,2.7,0.1,3.4
		c0,0.4,0.2,0.7,0.6,0.8c0.2,0,0.6,0.1,0.8,0.1c0.2,0,0.2,0,0.2,0.1c0,0.1-0.1,0.2-0.3,0.2c-1,0-2,0-2.4,0c-0.4,0-1.3,0-1.9,0
		c-0.2,0-0.3,0-0.3-0.2c0-0.1,0.1-0.1,0.2-0.1c0.2,0,0.4,0,0.6-0.1c0.3-0.1,0.4-0.3,0.4-0.8c0.1-0.6,0.1-1.9,0.1-3.3V35.1z"/>
	<path class="st2" d="M109.7,18.3c0,2.1,0,3.9-0.1,4.8c-0.1,0.6-0.2,1-0.6,1.1c-0.2,0-0.5,0.1-0.8,0.1c-0.3,0-0.4,0.1-0.4,0.2
		c0,0.2,0.2,0.2,0.4,0.2c0.9,0,2.3-0.1,2.8-0.1c0.6,0,2,0.1,3.4,0.1c0.2,0,0.4-0.1,0.4-0.2c0-0.1-0.1-0.2-0.4-0.2
		c-0.3,0-0.8,0-1.1-0.1c-0.7-0.1-0.8-0.5-0.9-1.1c-0.1-0.9-0.1-2.7-0.1-4.8v-3.9c0-3.3,0-4,0-4.7c0-0.8,0.2-1.1,0.8-1.3
		c0.3,0,0.4-0.1,0.7-0.1c0.2,0,0.4,0,0.4-0.2c0-0.1-0.2-0.2-0.5-0.2c-0.8,0-2.1,0.2-2.7,0.2c-0.6,0-2-0.1-2.9-0.1c-1.5,0-3,0-4.5,0
		c-0.8,0-2.1,0.1-2.7,0.1c-0.6,0-2-0.2-2.9-0.2c-0.4,0-0.5,0-0.5,0.2c0,0.2,0.1,0.2,0.4,0.2c0.3,0,0.6,0,0.8,0.1
		c0.5,0.1,0.7,0.5,0.7,1.2c0,0.7,0,1.3,0,4.7v3.9c0,2.1,0,3.9-0.1,4.8c-0.1,0.6-0.2,1-0.6,1.1c-0.2,0-0.5,0.1-0.8,0.1
		c-0.3,0-0.4,0.1-0.4,0.2c0,0.2,0.2,0.2,0.4,0.2c0.9,0,2.3-0.1,2.8-0.1c0.6,0,2,0.1,3.4,0.1c0.2,0,0.4-0.1,0.4-0.2
		c0-0.1-0.1-0.2-0.4-0.2c-0.3,0-0.8,0-1.1-0.1c-0.7-0.1-0.8-0.5-0.9-1.1c-0.1-0.9-0.1-2.7-0.1-4.8v-3.9c0-1.9,0-4.3,0-5l2.3,0h3.9
		l1,0c0,0.7,0,3.1,0,5V18.3z"/>
	<path class="st2" d="M117.6,14.5c0-3.4,0-4,0-4.7c0-0.8-0.3-1.1-0.8-1.2c-0.2-0.1-0.5-0.1-0.8-0.1c-0.2,0-0.4,0-0.4-0.2
		c0-0.1,0.2-0.2,0.5-0.2c0.8,0,2.2,0.1,2.9,0.1c0.6,0,1.9-0.1,2.7-0.1c0.3,0,0.5,0,0.5,0.2c0,0.2-0.1,0.2-0.4,0.2
		c-0.2,0-0.4,0-0.7,0.1c-0.6,0.1-0.8,0.5-0.8,1.3c0,0.7,0,1.3,0,4.7v3.9l0,1.1l8-8.1c0-0.9,0-1.3,0-1.7c0-0.8-0.3-1.1-0.8-1.2
		c-0.2-0.1-0.5-0.1-0.8-0.1c-0.2,0-0.4,0-0.4-0.2c0-0.1,0.2-0.2,0.5-0.2c0.8,0,2.2,0.1,2.9,0.1c0.6,0,1.9-0.1,2.7-0.1
		c0.3,0,0.5,0,0.5,0.2c0,0.2-0.1,0.2-0.4,0.2c-0.2,0-0.4,0-0.7,0.1c-0.6,0.1-0.8,0.5-0.8,1.3c0,0.7,0,1.3,0,4.7v3.9
		c0,2.2,0,3.9,0.1,4.9c0.1,0.6,0.2,1,0.9,1.1c0.3,0,0.8,0.1,1.1,0.1c0.2,0,0.4,0.1,0.4,0.2c0,0.2-0.2,0.2-0.4,0.2
		c-1.5,0-2.9-0.1-3.5-0.1c-0.5,0-1.9,0.1-2.8,0.1c-0.3,0-0.4-0.1-0.4-0.2c0-0.1,0.1-0.2,0.4-0.2c0.3,0,0.6,0,0.8-0.1
		c0.4-0.1,0.6-0.5,0.6-1.1c0.1-0.9,0.1-2.7,0.1-4.8v-3.9l0-1.3l-8,8.1c0,0.9,0,1.6,0.1,2.1c0.1,0.6,0.2,1,0.9,1.1
		c0.3,0,0.8,0.1,1.1,0.1c0.2,0,0.4,0.1,0.4,0.2c0,0.2-0.2,0.2-0.4,0.2c-1.5,0-2.9-0.1-3.5-0.1c-0.5,0-1.9,0.1-2.8,0.1
		c-0.3,0-0.4-0.1-0.4-0.2c0-0.1,0.1-0.2,0.4-0.2c0.3,0,0.6,0,0.8-0.1c0.4-0.1,0.6-0.5,0.6-1.1c0.1-0.9,0.1-2.7,0.1-4.8V14.5z"/>
	<path class="st2" d="M140.1,9.1l-3.3,0.1c-1.3,0-1.8,0.2-2.2,0.6c-0.2,0.3-0.3,0.6-0.4,0.8c0,0.2-0.1,0.3-0.2,0.3
		c-0.2,0-0.2-0.1-0.2-0.4c0-0.4,0.4-2.4,0.5-2.6c0.1-0.3,0.1-0.4,0.3-0.4c0.2,0,0.4,0.2,1,0.3c0.6,0.1,1.5,0.1,2.2,0.1h8.8
		c0.7,0,1.2-0.1,1.5-0.1c0.3-0.1,0.5-0.1,0.6-0.1c0.2,0,0.2,0.1,0.2,0.5c0,0.5-0.1,2-0.1,2.6c0,0.2-0.1,0.4-0.2,0.4
		c-0.2,0-0.2-0.1-0.2-0.4l0-0.2c0-0.6-0.6-1.2-2.6-1.2l-2.8-0.1v9.1c0,2,0,3.8,0.1,4.8c0.1,0.6,0.2,1.1,0.9,1.2
		c0.3,0,0.8,0.1,1.1,0.1c0.2,0,0.4,0.1,0.4,0.2c0,0.2-0.2,0.2-0.4,0.2c-1.5,0-2.9-0.1-3.5-0.1c-0.5,0-1.9,0.1-2.8,0.1
		c-0.3,0-0.4-0.1-0.4-0.2c0-0.1,0.1-0.2,0.4-0.2c0.3,0,0.6,0,0.8-0.1c0.4-0.1,0.6-0.6,0.6-1.2c0.1-0.9,0.1-2.7,0.1-4.7V9.1z"/>
	<path class="st2" d="M152.5,18.9c-0.1,0-0.2,0-0.2,0.2l-1.2,3.2c-0.2,0.6-0.3,1.1-0.3,1.4c0,0.4,0.2,0.7,0.9,0.7h0.3
		c0.3,0,0.3,0,0.3,0.2c0,0.2-0.1,0.2-0.4,0.2c-0.7,0-1.7-0.1-2.4-0.1c-0.2,0-1.5,0.1-2.6,0.1c-0.3,0-0.4,0-0.4-0.2
		c0-0.1,0.1-0.2,0.3-0.2c0.2,0,0.5,0,0.7,0c1-0.1,1.4-0.9,1.9-2L155,8.3c0.3-0.6,0.4-0.9,0.6-0.9c0.2,0,0.3,0.2,0.6,0.7
		c0.5,1.2,4.1,10.3,5.5,13.7c0.8,2,1.5,2.3,2,2.4c0.3,0.1,0.7,0.1,0.9,0.1c0.2,0,0.3,0,0.3,0.2c0,0.2-0.2,0.2-1,0.2
		c-0.8,0-2.4,0-4.2,0c-0.4,0-0.7,0-0.7-0.2c0-0.1,0.1-0.2,0.3-0.2c0.2,0,0.3-0.2,0.2-0.5l-1.8-4.7c0-0.1-0.1-0.2-0.2-0.2H152.5
		L152.5,18.9z M157,17.8L157,17.8c0.1,0,0.1-0.1,0.1-0.1l-2-5.5c0-0.1,0-0.2-0.1-0.2c-0.1,0-0.1,0.1-0.1,0.2l-2,5.5
		c0,0.1,0,0.2,0.1,0.2H157z"/>
	<path class="st2" d="M170,8c0.1-0.4,0.2-0.6,0.4-0.6c0.2,0,0.3,0.1,0.6,0.7l6.1,12.5l6-12.7c0.2-0.4,0.3-0.5,0.5-0.5
		c0.2,0,0.3,0.2,0.4,0.7l2,13.7c0.2,1.4,0.4,2,1.1,2.2c0.6,0.2,1.1,0.2,1.4,0.2c0.2,0,0.4,0,0.4,0.2c0,0.2-0.3,0.2-0.6,0.2
		c-0.6,0-3.6-0.1-4.5-0.1c-0.5,0-0.6-0.1-0.6-0.2c0-0.1,0.1-0.2,0.2-0.2c0.1,0,0.2-0.3,0.1-1l-1.3-9.8H182l-4.8,10.1
		c-0.5,1-0.6,1.2-0.8,1.2c-0.2,0-0.4-0.4-0.8-1.1c-0.5-1-2.3-4.4-2.6-5c-0.2-0.5-1.5-3.3-2.3-4.9h-0.1l-1.2,8.8c0,0.4-0.1,0.7-0.1,1
		c0,0.4,0.3,0.6,0.7,0.7c0.4,0.1,0.7,0.1,0.9,0.1c0.2,0,0.3,0,0.3,0.2c0,0.2-0.2,0.2-0.5,0.2c-0.9,0-1.9-0.1-2.3-0.1
		c-0.4,0-1.5,0.1-2.2,0.1c-0.2,0-0.4,0-0.4-0.2c0-0.1,0.1-0.2,0.4-0.2c0.2,0,0.3,0,0.7-0.1c0.6-0.1,0.8-1,0.9-1.8L170,8z"/>
	<path class="st2" d="M191.8,14.3c0-3.4,0-4,0-4.7c0-0.8-0.2-1.1-1-1.3c-0.2,0-0.6-0.1-0.9-0.1c-0.2,0-0.4,0-0.4-0.2
		c0-0.2,0.2-0.2,0.5-0.2c0.6,0,1.2,0,1.8,0c0.6,0,1.1,0,1.4,0c0.7,0,5.1,0,5.6,0c0.4,0,0.8-0.1,1-0.1c0.1,0,0.2-0.1,0.4-0.1
		c0.1,0,0.1,0.1,0.1,0.2c0,0.2-0.1,0.4-0.2,1.4c0,0.2-0.1,1.2-0.1,1.5c0,0.1-0.1,0.2-0.2,0.2c-0.2,0-0.2-0.1-0.2-0.3
		c0-0.2,0-0.5-0.1-0.8c-0.2-0.4-0.4-0.7-1.5-0.8c-0.4,0-2.7-0.1-3.2-0.1c-0.1,0-0.2,0.1-0.2,0.2v5.6c0,0.2,0,0.2,0.2,0.2
		c0.5,0,3,0,3.6,0c0.5,0,0.9-0.1,1.1-0.3c0.2-0.2,0.2-0.3,0.4-0.3c0.1,0,0.2,0,0.2,0.2c0,0.1-0.1,0.5-0.2,1.6c0,0.4-0.1,1.3-0.1,1.5
		c0,0.2,0,0.4-0.2,0.4c-0.2,0-0.2-0.1-0.2-0.2c0-0.2,0-0.5-0.1-0.8c-0.1-0.4-0.4-0.8-1.2-0.9c-0.4,0-2.6-0.1-3.2-0.1
		c-0.1,0-0.1,0.1-0.1,0.2v1.8c0,0.8,0,2.8,0,3.4c0,1.5,0.4,1.9,2.7,1.9c0.6,0,1.5,0,2.1-0.3c0.6-0.3,0.8-0.7,1-1.6
		c0-0.2,0.1-0.3,0.2-0.3c0.2,0,0.2,0.2,0.2,0.4c0,0.5-0.2,2-0.3,2.5c-0.2,0.6-0.4,0.6-1.2,0.6c-1.7,0-2.9,0-3.8-0.1
		c-1,0-1.6-0.1-2.3-0.1c-0.2,0-0.7,0-1.3,0c-0.5,0-1.1,0-1.5,0c-0.3,0-0.4-0.1-0.4-0.2c0-0.1,0.1-0.2,0.4-0.2c0.3,0,0.6,0,0.8-0.1
		c0.4-0.1,0.6-0.6,0.6-1.2c0.1-0.9,0.1-2.7,0.1-4.7V14.3z"/>
	<path class="st2" d="M203.9,14.3c0-3.4,0-4,0-4.7c0-0.8-0.3-1.1-0.8-1.2c-0.2-0.1-0.5-0.1-0.8-0.1c-0.2,0-0.4,0-0.4-0.2
		c0-0.1,0.2-0.2,0.5-0.2c0.8,0,2.2,0.1,2.9,0.1c0.6,0,1.9-0.1,2.7-0.1c0.3,0,0.5,0,0.5,0.2c0,0.2-0.1,0.2-0.4,0.2
		c-0.2,0-0.4,0-0.7,0.1c-0.6,0.1-0.8,0.5-0.8,1.3c0,0.7,0,1.3,0,4.7v1.4h7.2v-1.4c0-3.4,0-4,0-4.7c0-0.8-0.3-1.1-0.8-1.2
		c-0.2-0.1-0.5-0.1-0.8-0.1c-0.2,0-0.4,0-0.4-0.2c0-0.1,0.2-0.2,0.5-0.2c0.8,0,2.2,0.1,2.9,0.1c0.6,0,1.9-0.1,2.7-0.1
		c0.3,0,0.5,0,0.5,0.2c0,0.2-0.1,0.2-0.4,0.2c-0.2,0-0.4,0-0.7,0.1c-0.6,0.1-0.8,0.5-0.8,1.3c0,0.7,0,1.3,0,4.7v3.9
		c0,2.2,0,3.9,0.1,4.9c0.1,0.6,0.2,1,0.9,1.1c0.3,0,0.8,0.1,1.1,0.1c0.2,0,0.4,0.1,0.4,0.2c0,0.2-0.2,0.2-0.4,0.2
		c-1.5,0-2.9-0.1-3.5-0.1c-0.5,0-1.9,0.1-2.8,0.1c-0.3,0-0.4-0.1-0.4-0.2c0-0.1,0.1-0.2,0.4-0.2c0.3,0,0.6,0,0.8-0.1
		c0.4-0.1,0.6-0.5,0.6-1.1c0.1-0.9,0.1-2.7,0.1-4.8v-1.4h-7.2v1.4c0,2.2,0,3.9,0.1,4.9c0.1,0.6,0.2,1,0.9,1.1c0.3,0,0.8,0.1,1.1,0.1
		c0.2,0,0.4,0.1,0.4,0.2c0,0.2-0.2,0.2-0.4,0.2c-1.5,0-2.9-0.1-3.5-0.1c-0.5,0-1.9,0.1-2.8,0.1c-0.3,0-0.4-0.1-0.4-0.2
		c0-0.1,0.1-0.2,0.4-0.2c0.3,0,0.6,0,0.8-0.1c0.4-0.1,0.6-0.5,0.6-1.1c0.1-0.9,0.1-2.7,0.1-4.8V14.3z"/>
	<path class="st2" d="M91.9,25c1.4,0,3-0.2,3.9-0.5c0.4-0.2,0.5-0.3,0.6-0.6c0.2-0.7,0.5-2.6,0.5-2.9c0-0.2,0-0.3-0.2-0.3
		c-0.2,0-0.2,0.1-0.3,0.4c-0.1,0.4-0.4,1-0.7,1.4c-0.9,1-2,1.2-3.9,1.2c-2.9,0-6.8-2.5-6.8-7.7c0-2.1,0.4-4.1,2-5.6
		c0.9-0.9,2.2-1.3,4-1.3c2,0,3.7,0.6,4.4,1.3c0.5,0.6,0.8,1.3,0.8,2c0,0.3,0,0.5,0.2,0.5c0.2,0,0.2-0.2,0.3-0.5c0-0.4,0-1.6,0.1-2.3
		c0-0.8,0.1-1,0.1-1.2c0-0.1-0.1-0.2-0.3-0.3c-0.6-0.1-1.3-0.3-2.2-0.4c-1-0.1-1.8-0.2-3.1-0.2c-3.2,0-5.3,0.9-6.8,2.3
		c-2.1,1.9-2.5,4.4-2.5,5.9c0,2.1,0.6,4.5,2.7,6.4C86.4,24.4,88.9,25,91.9,25z"/>
	<path class="st1" d="M90.4,42.2V42c-0.2-0.5-0.3-0.9-0.5-1.2c-0.2-0.6-0.4-1-0.4-1.1c-0.1-0.2-0.2-0.3-0.3-0.4
		C89,39.1,88.8,39,88.6,39h-0.4v2c0,0.4,0,0.6,0.1,0.7c0.1,0.1,0.2,0.2,0.4,0.2v0.2h-2V42c0.2-0.1,0.4-0.1,0.4-0.2
		c0.1-0.1,0.1-0.3,0.1-0.7v-2h-0.4c-0.2,0-0.4,0.1-0.6,0.2c-0.1,0.1-0.3,0.3-0.4,0.5c-0.1,0.2-0.2,0.6-0.4,1.1
		c-0.2,0.6-0.4,1-0.5,1.2v0.2h-1.6V42c0.3,0,0.5-0.1,0.6-0.3c0.1-0.2,0.3-0.4,0.4-0.7l0.4-1c0.3-0.7,0.7-1.1,1.1-1.2v0
		c-0.2-0.1-0.3-0.3-0.4-0.4c-0.1-0.2-0.2-0.5-0.4-0.9c-0.2-0.4-0.3-0.7-0.4-0.9c-0.1-0.2-0.2-0.2-0.4-0.2c-0.2,0-0.4,0.1-0.4,0.4
		h-0.5v-1c0.2-0.1,0.4-0.1,0.6-0.1c0.5,0,0.8,0.1,1,0.4c0.2,0.2,0.4,0.7,0.6,1.2c0.2,0.7,0.4,1.1,0.6,1.2c0.1,0.1,0.3,0.2,0.6,0.2
		h0.4v-1.7c0-0.4,0-0.6-0.1-0.7c-0.1-0.1-0.2-0.2-0.5-0.2v-0.2h2v0.2c-0.2,0.1-0.4,0.2-0.5,0.3c-0.1,0.1-0.1,0.3-0.1,0.7v1.7h0.4
		c0.2,0,0.4-0.1,0.6-0.2c0.1-0.1,0.3-0.5,0.5-1.2c0.2-0.6,0.4-1,0.6-1.3c0.2-0.2,0.5-0.3,1-0.3c0.2,0,0.4,0,0.6,0.1v1h-0.5
		c-0.1-0.3-0.2-0.4-0.4-0.4c-0.2,0-0.3,0.1-0.4,0.3c-0.1,0.2-0.2,0.5-0.4,0.8c-0.2,0.4-0.3,0.7-0.4,0.9c-0.1,0.2-0.2,0.3-0.4,0.4v0
		c0.5,0.1,0.9,0.5,1.1,1.2l0.4,1c0.2,0.4,0.3,0.6,0.4,0.8c0.1,0.1,0.3,0.2,0.6,0.3v0.2H90.4L90.4,42.2z M96.4,42.2V42
		c0.2-0.1,0.4-0.1,0.5-0.2c0.1-0.1,0.1-0.3,0.1-0.7v-2c0-0.7,0-1.1,0-1.3h0L94.3,41c0,0.4,0,0.6,0.1,0.7c0.1,0.1,0.2,0.2,0.5,0.2
		v0.2h-2V42c0.2-0.1,0.4-0.1,0.5-0.2c0.1-0.1,0.1-0.3,0.1-0.7v-4.1c0-0.4,0-0.7-0.1-0.8C93.2,36,93,36,92.8,35.9v-0.2h2v0.2
		c-0.2,0.1-0.4,0.1-0.4,0.2c-0.1,0.1-0.1,0.3-0.1,0.8V39c0,0.5,0,0.9,0,1.2h0l2.7-3.3c0-0.3,0-0.6-0.1-0.7c-0.1-0.1-0.2-0.2-0.5-0.2
		v-0.2h2v0.2C98.2,36,98,36,98,36.1c-0.1,0.1-0.1,0.3-0.1,0.8V41c0,0.4,0,0.6,0.1,0.7c0.1,0.1,0.2,0.2,0.5,0.2v0.2H96.4L96.4,42.2z
		 M99.6,42.2V42c0.2-0.1,0.3-0.1,0.4-0.2c0.1-0.1,0.1-0.1,0.1-0.3c0-0.1,0-0.3,0-0.5v-4.1c0-0.2,0-0.4,0-0.5c0-0.1,0-0.2-0.1-0.2
		c0-0.1-0.1-0.1-0.1-0.1c-0.1,0-0.2-0.1-0.3-0.1v-0.2h2.6c0.5,0,0.9,0.1,1.2,0.2c0.3,0.1,0.5,0.3,0.7,0.5c0.1,0.2,0.2,0.5,0.2,0.8
		c0,0.3-0.1,0.5-0.2,0.7c-0.1,0.2-0.2,0.4-0.4,0.5c-0.2,0.1-0.4,0.3-0.7,0.4v0c0.4,0.1,0.8,0.3,1,0.6c0.2,0.3,0.3,0.6,0.3,1
		c0,0.4-0.1,0.8-0.3,1.1c-0.2,0.3-0.5,0.5-0.8,0.6c-0.3,0.1-0.8,0.2-1.3,0.2H99.6L99.6,42.2z M101.9,38.6c0.5,0,0.9-0.1,1.1-0.3
		c0.3-0.2,0.4-0.6,0.4-1c0-0.2,0-0.4-0.1-0.5c-0.1-0.1-0.2-0.3-0.3-0.3c-0.1-0.1-0.3-0.1-0.4-0.2c-0.2,0-0.4-0.1-0.6-0.1
		c-0.1,0-0.3,0-0.5,0c-0.2,0-0.3,0-0.4,0v2.5H101.9L101.9,38.6z M101,41.7c0.2,0,0.5,0,0.8,0c0.4,0,0.7-0.1,1-0.2
		c0.2-0.1,0.4-0.3,0.5-0.5c0.1-0.2,0.2-0.5,0.2-0.8c0-0.3-0.1-0.6-0.2-0.8c-0.1-0.2-0.3-0.3-0.5-0.4c-0.2-0.1-0.6-0.1-1-0.1H101
		V41.7L101,41.7z M109.1,42.2V42c0.2-0.1,0.4-0.1,0.5-0.2c0.1-0.1,0.1-0.3,0.1-0.7v-2c0-0.7,0-1.1,0-1.3h0L107,41
		c0,0.4,0,0.6,0.1,0.7c0.1,0.1,0.2,0.2,0.5,0.2v0.2h-2V42c0.2-0.1,0.4-0.1,0.5-0.2c0.1-0.1,0.1-0.3,0.1-0.7v-4.1
		c0-0.4,0-0.7-0.1-0.8c-0.1-0.1-0.2-0.2-0.4-0.2v-0.2h2v0.2c-0.2,0.1-0.4,0.1-0.4,0.2c-0.1,0.1-0.1,0.3-0.1,0.8V39
		c0,0.5,0,0.9,0,1.2h0l2.7-3.3c0-0.3,0-0.6-0.1-0.7c-0.1-0.1-0.2-0.2-0.5-0.2v-0.2h2v0.2c-0.2,0.1-0.4,0.1-0.4,0.2
		c-0.1,0.1-0.1,0.3-0.1,0.8V41c0,0.4,0,0.6,0.1,0.7c0.1,0.1,0.2,0.2,0.5,0.2v0.2H109.1L109.1,42.2z M119.4,43.9c0-0.3-0.1-0.7-0.2-1
		c-0.1-0.3-0.2-0.5-0.3-0.6c-0.1-0.1-0.3-0.1-0.5-0.1h-2.9c-0.3,0-0.6,0.1-0.7,0.4c-0.1,0.3-0.2,0.7-0.3,1.3H114v-2.2h0.5
		c0.5-0.6,0.9-1.5,1.2-2.5c0.3-1,0.5-1.9,0.5-2.7c0-0.2,0-0.4-0.1-0.5c-0.1-0.1-0.2-0.1-0.4-0.2v-0.2h3.9v0.2
		c-0.2,0.1-0.4,0.1-0.4,0.2c-0.1,0.1-0.1,0.3-0.1,0.8v4.9h0.8v2.2H119.4L119.4,43.9z M118.2,36.1h-1.3c-0.2,2.4-0.7,4.3-1.7,5.6h3
		V36.1L118.2,36.1z M123.4,42.3c-0.4,0-0.7-0.1-1-0.2c-0.3-0.1-0.6-0.3-0.8-0.6c-0.2-0.3-0.4-0.6-0.5-1c-0.1-0.4-0.2-0.9-0.2-1.5
		c0-0.7,0.1-1.3,0.3-1.8c0.2-0.5,0.5-0.9,0.9-1.2c0.4-0.3,0.9-0.4,1.4-0.4c0.6,0,1,0.1,1.4,0.4c0.4,0.2,0.7,0.6,0.9,1.1
		c0.2,0.5,0.3,1.1,0.3,1.8c0,0.7-0.1,1.4-0.3,1.9c-0.2,0.5-0.5,0.9-0.9,1.1C124.4,42.1,123.9,42.3,123.4,42.3L123.4,42.3z
		 M121.8,38.9c0,1,0.1,1.7,0.4,2.2c0.3,0.5,0.7,0.8,1.2,0.8c0.3,0,0.6-0.1,0.9-0.3c0.2-0.2,0.4-0.5,0.5-1c0.1-0.4,0.2-0.9,0.2-1.5
		c0-0.7-0.1-1.3-0.2-1.7c-0.1-0.5-0.3-0.8-0.6-1c-0.2-0.2-0.5-0.3-0.9-0.3c-0.3,0-0.5,0.1-0.7,0.2c-0.2,0.1-0.4,0.3-0.5,0.6
		c-0.1,0.2-0.2,0.5-0.3,0.9C121.8,38,121.8,38.4,121.8,38.9L121.8,38.9z M131.6,35.8v1.3h-0.5c-0.1-0.3-0.2-0.5-0.3-0.7
		c-0.1-0.2-0.3-0.3-0.4-0.4c-0.2-0.1-0.3-0.1-0.6-0.1c-0.3,0-0.6,0.1-0.9,0.3c-0.3,0.2-0.5,0.5-0.6,1c-0.1,0.4-0.2,1-0.2,1.6
		c0,0.6,0.1,1.2,0.2,1.6c0.1,0.4,0.3,0.8,0.5,1c0.2,0.2,0.5,0.3,0.9,0.3c0.3,0,0.5,0,0.6-0.1c0.2-0.1,0.3-0.2,0.4-0.4
		c0.1-0.2,0.2-0.4,0.3-0.7h0.5V42c-0.3,0.1-0.6,0.1-0.9,0.2c-0.3,0-0.7,0.1-1,0.1c-0.8,0-1.4-0.3-1.8-0.8c-0.4-0.5-0.6-1.4-0.6-2.4
		c0-0.7,0.1-1.3,0.3-1.8c0.2-0.5,0.5-0.9,0.9-1.2c0.4-0.3,0.9-0.4,1.5-0.4c0.3,0,0.6,0,0.8,0C131,35.7,131.3,35.7,131.6,35.8
		L131.6,35.8z M132.4,35.7h5.2v1.7h-0.5c-0.1-0.3-0.1-0.5-0.2-0.6c-0.1-0.2-0.1-0.3-0.2-0.4c-0.1-0.1-0.2-0.1-0.2-0.2
		c-0.1,0-0.2-0.1-0.4-0.1h-0.6V41c0,0.2,0,0.3,0,0.4c0,0.1,0.1,0.2,0.1,0.3c0,0.1,0.1,0.1,0.2,0.2c0.1,0,0.2,0.1,0.3,0.1v0.2h-2.2
		V42c0.1,0,0.2,0,0.3-0.1c0.1,0,0.1-0.1,0.2-0.1c0,0,0.1-0.1,0.1-0.1c0-0.1,0.1-0.1,0.1-0.2c0-0.1,0-0.2,0-0.4v-4.9H134
		c-0.1,0-0.3,0-0.4,0c-0.1,0-0.2,0.1-0.3,0.2c-0.1,0.1-0.2,0.2-0.2,0.4c-0.1,0.2-0.1,0.4-0.2,0.6h-0.5V35.7L132.4,35.7z M140.9,42.3
		c-0.4,0-0.7-0.1-1-0.2c-0.3-0.1-0.6-0.3-0.8-0.6c-0.2-0.3-0.4-0.6-0.5-1c-0.1-0.4-0.2-0.9-0.2-1.5c0-0.7,0.1-1.3,0.3-1.8
		c0.2-0.5,0.5-0.9,0.9-1.2c0.4-0.3,0.9-0.4,1.4-0.4c0.6,0,1,0.1,1.4,0.4c0.4,0.2,0.7,0.6,0.9,1.1c0.2,0.5,0.3,1.1,0.3,1.8
		c0,0.7-0.1,1.4-0.3,1.9c-0.2,0.5-0.5,0.9-0.9,1.1C141.9,42.1,141.4,42.3,140.9,42.3L140.9,42.3z M139.3,38.9c0,1,0.1,1.7,0.4,2.2
		c0.3,0.5,0.7,0.8,1.2,0.8c0.3,0,0.6-0.1,0.9-0.3c0.2-0.2,0.4-0.5,0.5-1c0.1-0.4,0.2-0.9,0.2-1.5c0-0.7-0.1-1.3-0.2-1.7
		c-0.1-0.5-0.3-0.8-0.6-1c-0.2-0.2-0.5-0.3-0.9-0.3c-0.3,0-0.5,0.1-0.7,0.2c-0.2,0.1-0.4,0.3-0.5,0.6c-0.1,0.2-0.2,0.5-0.3,0.9
		C139.4,38,139.3,38.4,139.3,38.9L139.3,38.9z M148.3,42.2V42c0.2-0.1,0.4-0.1,0.5-0.2c0.1-0.1,0.1-0.3,0.1-0.7v-2
		c0-0.7,0-1.1,0-1.3h0l-2.7,3.3c0,0.4,0,0.6,0.1,0.7c0.1,0.1,0.2,0.2,0.5,0.2v0.2h-2V42c0.2-0.1,0.4-0.1,0.5-0.2
		c0.1-0.1,0.1-0.3,0.1-0.7v-4.1c0-0.4,0-0.7-0.1-0.8c-0.1-0.1-0.2-0.2-0.4-0.2v-0.2h2v0.2c-0.2,0.1-0.4,0.1-0.4,0.2
		c-0.1,0.1-0.1,0.3-0.1,0.8V39c0,0.5,0,0.9,0,1.2h0l2.7-3.3c0-0.3,0-0.6-0.1-0.7c-0.1-0.1-0.2-0.2-0.5-0.2v-0.2h2v0.2
		c-0.2,0.1-0.4,0.1-0.4,0.2c-0.1,0.1-0.1,0.3-0.1,0.8V41c0,0.4,0,0.6,0.1,0.7c0.1,0.1,0.2,0.2,0.5,0.2v0.2H148.3L148.3,42.2z
		 M149.1,33.9c0,0.4-0.2,0.6-0.5,0.8c-0.3,0.2-0.7,0.3-1.1,0.3c-0.5,0-0.9-0.1-1.1-0.3c-0.3-0.2-0.4-0.5-0.4-0.8v-0.2h0.8v0.2
		c0,0.3,0.1,0.5,0.2,0.6c0.1,0.1,0.3,0.2,0.6,0.2c0.3,0,0.5-0.1,0.6-0.2c0.1-0.1,0.2-0.3,0.2-0.6v-0.2h0.8V33.9L149.1,33.9z
		 M156.5,41c0,0.2,0,0.3,0,0.4c0,0.1,0,0.2,0,0.2c0,0.1,0,0.1,0.1,0.1c0,0,0.1,0.1,0.1,0.1c0.1,0,0.2,0.1,0.3,0.1v0.2h-2V42
		c0.2,0,0.3-0.1,0.4-0.1c0.1-0.1,0.1-0.1,0.1-0.2c0-0.1,0-0.3,0-0.6v-2h-2.7v2c0,0.2,0,0.4,0,0.5c0,0.1,0,0.2,0.1,0.2
		c0,0.1,0.1,0.1,0.1,0.1c0.1,0,0.2,0.1,0.3,0.1v0.2h-2V42c0.2-0.1,0.3-0.1,0.4-0.2c0.1-0.1,0.1-0.1,0.1-0.3c0-0.1,0-0.3,0-0.5v-4.1
		c0-0.2,0-0.4,0-0.5c0-0.1,0-0.2-0.1-0.2c0-0.1-0.1-0.1-0.1-0.1c-0.1,0-0.2-0.1-0.3-0.1v-0.2h2v0.2c-0.1,0-0.2,0.1-0.3,0.1
		c-0.1,0-0.1,0.1-0.1,0.1c0,0.1-0.1,0.1-0.1,0.2c0,0.1,0,0.3,0,0.5v1.7h2.7v-1.7c0-0.3,0-0.5,0-0.6c0-0.1-0.1-0.2-0.1-0.2
		c-0.1-0.1-0.2-0.1-0.4-0.2v-0.2h2v0.2c-0.2,0-0.3,0.1-0.4,0.1c-0.1,0.1-0.1,0.1-0.1,0.3c0,0.1,0,0.3,0,0.6V41L156.5,41z
		 M160.7,42.3c-0.4,0-0.7-0.1-1-0.2c-0.3-0.1-0.6-0.3-0.8-0.6c-0.2-0.3-0.4-0.6-0.5-1c-0.1-0.4-0.2-0.9-0.2-1.5
		c0-0.7,0.1-1.3,0.3-1.8c0.2-0.5,0.5-0.9,0.9-1.2c0.4-0.3,0.9-0.4,1.4-0.4c0.6,0,1,0.1,1.4,0.4c0.4,0.2,0.7,0.6,0.9,1.1
		c0.2,0.5,0.3,1.1,0.3,1.8c0,0.7-0.1,1.4-0.3,1.9c-0.2,0.5-0.5,0.9-0.9,1.1C161.7,42.1,161.3,42.3,160.7,42.3L160.7,42.3z
		 M159.2,38.9c0,1,0.1,1.7,0.4,2.2c0.3,0.5,0.7,0.8,1.2,0.8c0.3,0,0.6-0.1,0.9-0.3c0.2-0.2,0.4-0.5,0.5-1c0.1-0.4,0.2-0.9,0.2-1.5
		c0-0.7-0.1-1.3-0.2-1.7c-0.1-0.5-0.3-0.8-0.6-1c-0.2-0.2-0.5-0.3-0.9-0.3c-0.3,0-0.5,0.1-0.7,0.2c-0.2,0.1-0.4,0.3-0.5,0.6
		c-0.1,0.2-0.2,0.5-0.3,0.9C159.2,38,159.2,38.4,159.2,38.9L159.2,38.9z M165.9,35.7l-0.3,4.5h-0.5l-0.2-4.5H165.9L165.9,35.7z
		 M165.9,41.1v1.1h-1v-1.1H165.9z"/>
	<path class="st1" d="M187.9,38.3h-4.2l-0.8,1.8c-0.2,0.4-0.3,0.8-0.3,1c0,0.2,0.1,0.3,0.3,0.5c0.2,0.1,0.5,0.2,1.1,0.3v0.3h-0.3
		h-3.3H180v-0.3c0.5-0.1,0.8-0.2,0.9-0.3c0.3-0.3,0.6-0.8,1-1.7l4.1-9.5h0.3l0,0.1l0-0.1h0.3l4.1,9.6c0.3,0.8,0.6,1.3,0.9,1.5
		c0.3,0.2,0.6,0.4,1.1,0.4v0.3h-0.3h-4.3h-0.3v-0.3c0.5,0,0.8-0.1,0.9-0.2c0.2-0.1,0.2-0.3,0.2-0.5c0-0.2-0.1-0.6-0.3-1.2
		L187.9,38.3L187.9,38.3z M185.9,33.4l-1.9,4.3h3.7L185.9,33.4z"/>
	<path class="st2" d="M81.4,0.7c-5.9,3.7-11.8,7.2-17.8,10.5C41,22.6,20.1,35.8,0,51.2c19.9-12.5,40.6-23.1,62-31.8
		c3.5,9.1,0.3,19.7-8.3,25.1c-9.3,5.8-21.5,3.3-27.9-5.5c-0.7,0.4-1.5,0.8-2.2,1.2c7.9,9.7,22,12.2,32.8,5.4
		c11.2-7,14.9-21.5,8.8-33.1C70.7,8.7,76.1,4.8,81.4,0.7z"/>
	<path class="st1" d="M29.4,26.3c2.1-1.3,4.2-2.6,6.3-3.9l-13.2,4.6c-1.9-8.4,1.5-17.4,9.1-22.2c7.9-5,17.9-3.9,24.7,2.1
		c-3.2,2.5-11.2,9.2-13.9,11.6c4.7-2.7,9.5-5.3,14.3-7.8c0.9-0.5,1.6-0.9,2.1-1.1c0,0,0,0,0,0c0.7-0.4,1.5-0.8,2.2-1.1
		c-8-9-21.6-11.2-32.1-4.6c-10.1,6.3-14.1,18.7-10.3,29.5c0.1,0,0.1-0.1,0.2-0.1C22.4,30.9,25.9,28.6,29.4,26.3z"/>
</g>
</svg>
