<?xml version="1.0" encoding="utf-8"?>
<!-- Generator: Adobe Illustrator 20.1.0, SVG Export Plug-In . SVG Version: 6.00 Build 0)  -->
<svg version="1.1" id="_x31_" xmlns="http://www.w3.org/2000/svg" xmlns:xlink="http://www.w3.org/1999/xlink" x="0px" y="0px"
	 viewBox="0 0 220.5 51.2" style="enable-background:new 0 0 220.5 51.2;" xml:space="preserve">
<style type="text/css">
	.st0{fill-rule:evenodd;clip-rule:evenodd;fill:#535F75;}
	.st1{fill-rule:evenodd;clip-rule:evenodd;fill:#FECC09;}
	.st2{fill-rule:evenodd;clip-rule:evenodd;fill:#FEFEFE;}
</style>
<rect class="st0" width="220.5" height="51.2"/>
<g>
	<path class="st1" d="M81.4,0.7c-5.9,3.7-11.8,7.2-17.8,10.5C41,22.6,20.1,35.8,0,51.2c19.9-12.5,40.6-23.1,62-31.8
		c3.5,9.1,0.3,19.7-8.3,25c-9.3,5.8-21.5,3.3-27.9-5.5c-0.7,0.4-1.5,0.8-2.2,1.2c7.9,9.7,22,12.2,32.8,5.4c11.2-7,14.9-21.5,8.8-33
		C70.7,8.7,76.1,4.8,81.4,0.7z"/>
	<path class="st2" d="M29.4,26.3c2.1-1.3,4.2-2.6,6.3-3.8l-13.1,4.6c-1.9-8.4,1.5-17.4,9.1-22.2c7.9-5,17.9-3.9,24.7,2.1
		c-3.2,2.5-11.2,9.2-13.9,11.6c4.7-2.7,9.5-5.3,14.3-7.8c0.9-0.5,1.6-0.9,2.1-1.1c0,0,0,0,0,0c0.7-0.4,1.5-0.8,2.2-1.1
		c-8-9-21.6-11.2-32.1-4.6c-10.1,6.3-14.1,18.7-10.3,29.5c0.1,0,0.1-0.1,0.2-0.1C22.4,30.9,25.9,28.6,29.4,26.3z"/>
	<rect x="81.5" y="30.4" class="st2" width="84.2" height="1.6"/>
	<g>
		<path class="st2" d="M186.3,42.2c2.5,0,3.9-1,4.9-2.3c0.8-1.1,1.2-2.4,1.2-3.5c0-2.2-1-3.9-2.2-4.8c-1.3-1.1-2.6-1.3-3.9-1.3
			c-1.4,0-3.2,0.3-4.6,2.1c-1.2,1.5-1.5,3-1.5,4c0,2.4,1.2,4.1,2.3,4.8C183.8,42,185.2,42.2,186.3,42.2L186.3,42.2z M186.4,41.5
			c-1.3,0-3.7-1.5-3.7-5.6c0-1.3,0.5-3,1.4-3.9c1-1,1.8-0.9,2.1-0.9c1.3,0,3.6,1.9,3.6,5.5C189.9,37.9,189.3,41.5,186.4,41.5z"/>
		<path class="st2" d="M210.2,35.6L210.2,35.6c0.6-0.6,3-2.9,3.5-3.4c0.5-0.5,0.8-0.9,0.8-1.2c0-0.2-0.1-0.3-0.2-0.3
			c-0.1,0-0.2-0.1-0.2-0.2c0-0.1,0.1-0.1,0.3-0.1c0.3,0,1.2,0,1.7,0c0.5,0,1.4,0,1.9,0c0.2,0,0.3,0,0.3,0.1c0,0.1-0.1,0.2-0.2,0.2
			c-0.2,0-0.6,0.1-0.9,0.2c-0.5,0.2-1,0.5-1.7,1.2c-0.5,0.5-2.9,2.8-3.4,3.3c0.6,0.7,3.8,4.1,4.4,4.6c0.7,0.6,1.3,1.3,2.2,1.7
			c0.5,0.2,0.8,0.2,1,0.2c0.1,0,0.2,0.1,0.2,0.2c0,0.1-0.1,0.2-0.4,0.2h-1.4c-0.5,0-0.8,0-1.1,0c-0.9-0.1-1.4-0.4-2.1-1
			c-0.7-0.6-3.8-4.2-4.2-4.7l-0.2-0.2h-0.1v1.4c0,1.4,0,2.7,0,3.4c0,0.4,0.2,0.7,0.6,0.8c0.2,0,0.6,0.1,0.8,0.1
			c0.1,0,0.2,0.1,0.2,0.2c0,0.1-0.1,0.2-0.3,0.2c-0.9,0-2.1-0.1-2.5-0.1c-0.4,0-1.4,0.1-2,0.1c-0.2,0-0.3-0.1-0.3-0.2
			c0-0.1,0.1-0.2,0.3-0.2c0.2,0,0.4,0,0.6-0.1c0.3-0.1,0.4-0.4,0.5-0.8c0.1-0.7,0.1-1.9,0.1-3.3v-2.8c0-2.4,0-2.8,0-3.3
			c0-0.5-0.2-0.7-0.7-0.8c-0.1,0-0.4-0.1-0.6-0.1c-0.2,0-0.3-0.1-0.3-0.2c0-0.1,0.1-0.1,0.4-0.1c0.8,0,1.9,0,2.3,0
			c0.4,0,1.5,0,2.1,0c0.2,0,0.4,0,0.4,0.1c0,0.1-0.1,0.2-0.2,0.2c-0.2,0-0.3,0-0.5,0.1c-0.4,0.1-0.6,0.3-0.6,0.8c0,0.5,0,0.9,0,3.3
			V35.6z"/>
		<path class="st2" d="M170.9,34.5c0-2,0-2.4,0-2.9c0-0.5-0.2-0.8-0.6-0.9c-0.2,0-0.4-0.1-0.6-0.1c-0.2,0-0.3,0-0.3-0.2
			c0-0.1,0.1-0.1,0.4-0.1c0.7,0,1.8,0,2.3,0c2,0,2.7,0,2.9,0h0.6c0.7,0,1.2,0,1.6-0.1c0.3,0,0.5-0.1,0.6-0.1c0.2,0,0.2,0.1,0.2,0.3
			c0,0.3-0.1,1.3-0.1,1.7c0,0.1-0.1,0.2-0.2,0.2c-0.2,0-0.2-0.1-0.2-0.3l0-0.2c0-0.4-0.7-0.8-2.7-0.8l-1.4,0
			c-0.1,0.1-0.1,0.2-0.1,0.3c0,0.5,0,0.9,0,3.3v0.3l0,0v0h0.2c0.1,0,0.3,0,0.6,0c0.2,0,0.4,0,0.5,0c2.1,0,4.5,1,4.5,3.5
			c0,1.6-1.3,3.3-4.1,3.4c0,0-0.1,0-0.1,0l-0.1,0h0h0h0h0l0,0h0c-1.1,0-2.1,0-2.5,0c-0.4,0-1.5,0-2.2,0c-0.2,0-0.4,0-0.4-0.2
			c0-0.1,0.1-0.1,0.3-0.1c0.3,0,0.5,0,0.6-0.1c0.4-0.1,0.5-0.3,0.5-0.8l0,0c0,0,0-0.1,0-0.1c0.1-0.7,0.1-1.9,0.1-3.3v-2.8
			L170.9,34.5L170.9,34.5L170.9,34.5z M173,36.1v1.6c0,1.4,0,2.5,0.1,3.2c0.1,0.2,0.2,0.3,0.4,0.4c0.4,0.2,0.8,0.2,1.2,0.2
			c0.9,0,2-0.5,2-2.2c0-0.7-0.3-2-1.5-2.8c-0.3-0.2-0.8-0.4-1.4-0.4L173,36.1L173,36.1z"/>
		<path class="st2" d="M194.9,35c0-2.4,0-2.8,0-3.3c0-0.5-0.2-0.8-0.5-0.9c-0.2,0-0.4-0.1-0.6-0.1c-0.2,0-0.2,0-0.2-0.2
			c0-0.1,0.1-0.1,0.4-0.1c0.6,0,1.6,0,2,0c0.4,0,1.3,0,1.9,0c0.2,0,0.3,0,0.3,0.1c0,0.1-0.1,0.2-0.3,0.2c-0.2,0-0.3,0-0.5,0
			c-0.4,0.1-0.5,0.3-0.6,0.9c0,0.5,0,0.9,0,3.3v1h5v-1c0-2.4,0-2.8,0-3.3c0-0.5-0.2-0.8-0.5-0.9c-0.2,0-0.4-0.1-0.6-0.1
			c-0.2,0-0.2,0-0.2-0.2c0-0.1,0.1-0.1,0.4-0.1c0.6,0,1.6,0,2,0c0.4,0,1.3,0,1.9,0c0.2,0,0.3,0,0.3,0.1c0,0.1-0.1,0.2-0.3,0.2
			c-0.2,0-0.3,0-0.5,0c-0.4,0.1-0.5,0.3-0.6,0.9c0,0.5,0,0.9,0,3.3v2.7c0,1.5,0,2.8,0.1,3.4c0,0.4,0.2,0.7,0.6,0.8
			c0.2,0,0.6,0.1,0.8,0.1c0.2,0,0.3,0,0.3,0.1c0,0.1-0.1,0.2-0.3,0.2c-1,0-2,0-2.4,0c-0.4,0-1.3,0-2,0c-0.2,0-0.3,0-0.3-0.2
			c0-0.1,0.1-0.1,0.2-0.1c0.2,0,0.4,0,0.6-0.1c0.3-0.1,0.4-0.3,0.5-0.8c0.1-0.7,0.1-1.9,0.1-3.4v-1h-5v1c0,1.5,0,2.8,0.1,3.4
			c0,0.4,0.2,0.7,0.6,0.8c0.2,0,0.6,0.1,0.8,0.1c0.2,0,0.3,0,0.3,0.1c0,0.1-0.1,0.2-0.3,0.2c-1,0-2,0-2.4,0c-0.4,0-1.3,0-2,0
			c-0.2,0-0.3,0-0.3-0.2c0-0.1,0.1-0.1,0.2-0.1c0.2,0,0.4,0,0.6-0.1c0.3-0.1,0.4-0.3,0.5-0.8c0.1-0.7,0.1-1.9,0.1-3.4V35z"/>
	</g>
	<path class="st1" d="M109.9,18.5c0,2.2,0,3.9-0.1,4.9c-0.1,0.6-0.2,1-0.6,1.1c-0.2,0-0.5,0.1-0.8,0.1c-0.3,0-0.4,0.1-0.4,0.2
		c0,0.2,0.2,0.2,0.4,0.2c0.9,0,2.3-0.1,2.8-0.1c0.6,0,2,0.1,3.5,0.1c0.2,0,0.4-0.1,0.4-0.2c0-0.1-0.1-0.2-0.4-0.2
		c-0.3,0-0.8,0-1.1-0.1c-0.7-0.1-0.8-0.5-0.9-1.1c-0.1-1-0.1-2.7-0.1-4.9v-3.9c0-3.4,0-4,0-4.7c0-0.8,0.2-1.2,0.8-1.3
		c0.3,0,0.4-0.1,0.7-0.1c0.2,0,0.4,0,0.4-0.2c0-0.1-0.2-0.2-0.5-0.2c-0.8,0-2.2,0.2-2.7,0.2c-0.6,0-2-0.1-2.9-0.1c-1.5,0-3,0-4.5,0
		c-0.8,0-2.2,0.1-2.7,0.1c-0.6,0-2-0.2-2.9-0.2c-0.4,0-0.5,0-0.5,0.2c0,0.2,0.1,0.2,0.4,0.2c0.3,0,0.6,0,0.8,0.1
		c0.5,0.1,0.7,0.5,0.8,1.2c0,0.7,0,1.3,0,4.7v3.9c0,2.2,0,3.9-0.1,4.9c-0.1,0.6-0.2,1-0.6,1.1c-0.2,0-0.5,0.1-0.8,0.1
		c-0.3,0-0.4,0.1-0.4,0.2c0,0.2,0.2,0.2,0.4,0.2c0.9,0,2.3-0.1,2.8-0.1c0.6,0,2,0.1,3.5,0.1c0.2,0,0.4-0.1,0.4-0.2
		c0-0.1-0.1-0.2-0.4-0.2c-0.3,0-0.8,0-1.1-0.1c-0.7-0.1-0.8-0.5-0.9-1.1c-0.1-1-0.1-2.7-0.1-4.9v-3.9c0-1.9,0-4.4,0-5.1l2.4,0h3.9
		l1.1,0c0,0.7,0,3.2,0,5.1V18.5z"/>
	<path class="st1" d="M117.9,14.5c0-3.4,0-4,0-4.8c0-0.8-0.3-1.1-0.8-1.3c-0.2-0.1-0.5-0.1-0.8-0.1c-0.2,0-0.4,0-0.4-0.2
		c0-0.1,0.2-0.2,0.5-0.2c0.9,0,2.3,0.1,2.9,0.1c0.6,0,1.9-0.1,2.7-0.1c0.3,0,0.5,0,0.5,0.2c0,0.2-0.1,0.2-0.4,0.2
		c-0.2,0-0.4,0-0.7,0.1c-0.6,0.1-0.8,0.5-0.8,1.3c0,0.7,0,1.3,0,4.8v4l0,1.1l8.1-8.2c0-0.9,0-1.3,0-1.7c0-0.8-0.3-1.1-0.8-1.3
		c-0.2-0.1-0.5-0.1-0.8-0.1c-0.2,0-0.4,0-0.4-0.2c0-0.1,0.2-0.2,0.5-0.2c0.9,0,2.3,0.1,2.9,0.1c0.6,0,1.9-0.1,2.7-0.1
		c0.3,0,0.5,0,0.5,0.2c0,0.2-0.1,0.2-0.4,0.2c-0.2,0-0.4,0-0.7,0.1c-0.6,0.1-0.8,0.5-0.8,1.3c0,0.7,0,1.3,0,4.8v4c0,2.2,0,4,0.1,4.9
		c0.1,0.6,0.2,1,0.9,1.1c0.3,0,0.8,0.1,1.1,0.1c0.2,0,0.4,0.1,0.4,0.2c0,0.2-0.2,0.2-0.4,0.2c-1.5,0-2.9-0.1-3.5-0.1
		c-0.5,0-1.9,0.1-2.8,0.1c-0.3,0-0.5-0.1-0.5-0.2c0-0.1,0.1-0.2,0.4-0.2c0.3,0,0.6,0,0.8-0.1c0.4-0.1,0.6-0.5,0.7-1.1
		c0.1-0.9,0.1-2.7,0.1-4.9v-4l0-1.4l-8.1,8.1c0,0.9,0,1.6,0.1,2.1c0.1,0.6,0.2,1,0.9,1.1c0.3,0,0.8,0.1,1.1,0.1
		c0.2,0,0.4,0.1,0.4,0.2c0,0.2-0.2,0.2-0.4,0.2c-1.5,0-2.9-0.1-3.5-0.1c-0.5,0-1.9,0.1-2.8,0.1c-0.3,0-0.5-0.1-0.5-0.2
		c0-0.1,0.1-0.2,0.4-0.2c0.3,0,0.6,0,0.8-0.1c0.4-0.1,0.6-0.5,0.7-1.1c0.1-0.9,0.1-2.7,0.1-4.9V14.5z"/>
	<path class="st1" d="M140.7,9.3l-3.3,0.1c-1.3,0-1.8,0.2-2.2,0.7c-0.2,0.3-0.3,0.6-0.4,0.8c0,0.2-0.1,0.3-0.2,0.3
		c-0.2,0-0.2-0.1-0.2-0.4c0-0.4,0.4-2.4,0.5-2.6c0.1-0.3,0.1-0.4,0.3-0.4c0.2,0,0.4,0.2,1,0.3c0.7,0.1,1.5,0.1,2.2,0.1h8.9
		c0.7,0,1.2-0.1,1.6-0.1c0.3-0.1,0.5-0.1,0.6-0.1c0.2,0,0.2,0.1,0.2,0.5c0,0.5-0.1,2-0.1,2.6c0,0.2-0.1,0.4-0.2,0.4
		c-0.2,0-0.2-0.1-0.2-0.4l0-0.2c0-0.6-0.7-1.2-2.6-1.3l-2.8-0.1v9.2c0,2.1,0,3.8,0.1,4.8c0.1,0.6,0.2,1.1,0.9,1.2
		c0.3,0,0.8,0.1,1.1,0.1c0.2,0,0.4,0.1,0.4,0.2c0,0.2-0.2,0.2-0.4,0.2c-1.5,0-2.9-0.1-3.5-0.1c-0.5,0-1.9,0.1-2.8,0.1
		c-0.3,0-0.4-0.1-0.4-0.2c0-0.1,0.1-0.2,0.4-0.2c0.3,0,0.6,0,0.8-0.1c0.4-0.1,0.6-0.6,0.7-1.2c0.1-0.9,0.1-2.7,0.1-4.8V9.3z"/>
	<path class="st1" d="M153.3,19.1c-0.1,0-0.2,0-0.2,0.2l-1.2,3.2c-0.2,0.6-0.3,1.1-0.3,1.4c0,0.4,0.2,0.7,0.9,0.7h0.3
		c0.3,0,0.3,0,0.3,0.2c0,0.2-0.1,0.2-0.4,0.2c-0.7,0-1.7-0.1-2.4-0.1c-0.2,0-1.5,0.1-2.7,0.1c-0.3,0-0.4,0-0.4-0.2
		c0-0.1,0.1-0.2,0.3-0.2c0.2,0,0.5,0,0.7,0c1-0.1,1.5-0.9,1.9-2l5.6-14.1c0.3-0.7,0.4-0.9,0.6-0.9c0.2,0,0.3,0.2,0.6,0.7
		c0.5,1.2,4.1,10.4,5.6,13.8c0.9,2,1.5,2.3,2,2.4c0.3,0.1,0.7,0.1,0.9,0.1c0.2,0,0.3,0,0.3,0.2c0,0.2-0.2,0.2-1,0.2
		c-0.8,0-2.4,0-4.2,0c-0.4,0-0.7,0-0.7-0.2c0-0.1,0.1-0.2,0.3-0.2c0.2,0,0.3-0.2,0.2-0.5l-1.8-4.8c0-0.1-0.1-0.2-0.2-0.2H153.3
		L153.3,19.1z M157.8,18L157.8,18c0.1,0,0.1-0.1,0.1-0.1l-2-5.5c0-0.1,0-0.2-0.1-0.2c-0.1,0-0.1,0.1-0.1,0.2l-2.1,5.5
		c0,0.1,0,0.2,0.1,0.2H157.8z"/>
	<path class="st1" d="M170.9,8.1c0.1-0.4,0.2-0.6,0.4-0.6c0.2,0,0.3,0.1,0.6,0.7l6.1,12.7l6.1-12.8c0.2-0.4,0.3-0.5,0.5-0.5
		c0.2,0,0.3,0.2,0.4,0.7l2,13.9c0.2,1.4,0.4,2.1,1.1,2.3c0.7,0.2,1.1,0.2,1.4,0.2c0.2,0,0.4,0,0.4,0.2c0,0.2-0.3,0.2-0.6,0.2
		c-0.6,0-3.7-0.1-4.6-0.1c-0.5,0-0.7-0.1-0.7-0.2c0-0.1,0.1-0.2,0.2-0.2c0.1,0,0.2-0.3,0.1-1l-1.3-9.9h-0.1l-4.9,10.2
		c-0.5,1.1-0.6,1.3-0.8,1.3c-0.2,0-0.4-0.4-0.8-1.1c-0.5-1-2.3-4.5-2.6-5.1c-0.2-0.5-1.6-3.3-2.3-5h-0.1l-1.2,8.9
		c0,0.4-0.1,0.7-0.1,1.1c0,0.4,0.3,0.6,0.7,0.7c0.4,0.1,0.7,0.1,0.9,0.1c0.2,0,0.3,0,0.3,0.2c0,0.2-0.2,0.2-0.5,0.2
		c-0.9,0-2-0.1-2.4-0.1c-0.4,0-1.5,0.1-2.2,0.1c-0.2,0-0.4,0-0.4-0.2c0-0.1,0.1-0.2,0.4-0.2c0.2,0,0.3,0,0.7-0.1
		c0.6-0.1,0.8-1,0.9-1.8L170.9,8.1z"/>
	<path class="st1" d="M193,14.5c0-3.4,0-4,0-4.8c0-0.8-0.2-1.1-1-1.3c-0.2,0-0.6-0.1-0.9-0.1c-0.2,0-0.4,0-0.4-0.2
		c0-0.2,0.2-0.2,0.5-0.2c0.6,0,1.3,0,1.8,0c0.6,0,1.1,0,1.4,0c0.7,0,5.2,0,5.6,0c0.4,0,0.8-0.1,1-0.1c0.1,0,0.2-0.1,0.4-0.1
		c0.1,0,0.1,0.1,0.1,0.2c0,0.2-0.1,0.4-0.2,1.5c0,0.2-0.1,1.2-0.1,1.5c0,0.1-0.1,0.2-0.2,0.2c-0.2,0-0.2-0.1-0.2-0.3
		c0-0.2,0-0.5-0.1-0.8c-0.2-0.4-0.4-0.7-1.5-0.8c-0.4,0-2.7-0.1-3.2-0.1c-0.1,0-0.2,0.1-0.2,0.2V15c0,0.2,0,0.2,0.2,0.2
		c0.5,0,3.1,0,3.6,0c0.5,0,0.9-0.1,1.1-0.3c0.2-0.2,0.2-0.3,0.4-0.3c0.1,0,0.2,0,0.2,0.2c0,0.1-0.1,0.5-0.2,1.6
		c0,0.4-0.1,1.3-0.1,1.5c0,0.2,0,0.4-0.2,0.4c-0.2,0-0.2-0.1-0.2-0.2c0-0.2,0-0.5-0.1-0.8c-0.1-0.4-0.4-0.8-1.3-0.9
		c-0.4,0-2.7-0.1-3.2-0.1c-0.1,0-0.1,0.1-0.1,0.2v1.8c0,0.8,0,2.8,0,3.5c0,1.5,0.4,1.9,2.7,1.9c0.6,0,1.5,0,2.1-0.3
		c0.6-0.3,0.9-0.7,1-1.7c0-0.2,0.1-0.3,0.2-0.3c0.2,0,0.2,0.2,0.2,0.4c0,0.5-0.2,2-0.3,2.5c-0.2,0.6-0.4,0.6-1.2,0.6
		c-1.7,0-2.9,0-3.9-0.1c-1,0-1.7-0.1-2.3-0.1c-0.2,0-0.7,0-1.3,0c-0.5,0-1.1,0-1.5,0c-0.3,0-0.5-0.1-0.5-0.2c0-0.1,0.1-0.2,0.4-0.2
		c0.3,0,0.6,0,0.8-0.1c0.4-0.1,0.6-0.6,0.7-1.2c0.1-0.9,0.1-2.7,0.1-4.8V14.5z"/>
	<path class="st1" d="M205.2,14.5c0-3.4,0-4,0-4.8c0-0.8-0.3-1.1-0.8-1.3c-0.2-0.1-0.5-0.1-0.8-0.1c-0.2,0-0.4,0-0.4-0.2
		c0-0.1,0.2-0.2,0.5-0.2c0.9,0,2.3,0.1,2.9,0.1c0.6,0,1.9-0.1,2.7-0.1c0.3,0,0.5,0,0.5,0.2c0,0.2-0.1,0.2-0.4,0.2
		c-0.2,0-0.4,0-0.7,0.1c-0.6,0.1-0.8,0.5-0.8,1.3c0,0.7,0,1.3,0,4.8v1.4h7.2v-1.4c0-3.4,0-4,0-4.8c0-0.8-0.3-1.1-0.8-1.3
		c-0.2-0.1-0.5-0.1-0.8-0.1c-0.2,0-0.4,0-0.4-0.2c0-0.1,0.2-0.2,0.5-0.2c0.9,0,2.3,0.1,2.9,0.1c0.6,0,1.9-0.1,2.7-0.1
		c0.3,0,0.5,0,0.5,0.2c0,0.2-0.1,0.2-0.4,0.2c-0.2,0-0.4,0-0.7,0.1c-0.6,0.1-0.8,0.5-0.8,1.3c0,0.7,0,1.3,0,4.8v4c0,2.2,0,4,0.1,4.9
		c0.1,0.6,0.2,1,0.9,1.1c0.3,0,0.8,0.1,1.1,0.1c0.2,0,0.4,0.1,0.4,0.2c0,0.2-0.2,0.2-0.4,0.2c-1.5,0-2.9-0.1-3.5-0.1
		c-0.5,0-1.9,0.1-2.8,0.1c-0.3,0-0.5-0.1-0.5-0.2c0-0.1,0.1-0.2,0.4-0.2c0.3,0,0.6,0,0.8-0.1c0.4-0.1,0.6-0.5,0.7-1.1
		c0.1-0.9,0.1-2.7,0.1-4.9v-1.4H208v1.4c0,2.2,0,4,0.1,4.9c0.1,0.6,0.2,1,0.9,1.1c0.3,0,0.8,0.1,1.1,0.1c0.2,0,0.4,0.1,0.4,0.2
		c0,0.2-0.2,0.2-0.4,0.2c-1.5,0-2.9-0.1-3.5-0.1c-0.5,0-1.9,0.1-2.8,0.1c-0.3,0-0.5-0.1-0.5-0.2c0-0.1,0.1-0.2,0.4-0.2
		c0.3,0,0.6,0,0.8-0.1c0.4-0.1,0.6-0.5,0.7-1.1c0.1-0.9,0.1-2.7,0.1-4.9V14.5z"/>
	<path class="st1" d="M91.9,25c1.4,0,3-0.2,3.9-0.5c0.4-0.2,0.5-0.3,0.6-0.6c0.2-0.7,0.5-2.6,0.5-2.9c0-0.2,0-0.3-0.2-0.3
		c-0.2,0-0.2,0.1-0.3,0.4c-0.1,0.4-0.4,1-0.7,1.4c-0.9,1-2,1.2-4,1.2c-2.9,0-6.9-2.6-6.9-7.8c0-2.1,0.4-4.2,2-5.6
		C87.8,9.5,89,9,90.9,9c2,0,3.7,0.6,4.4,1.4c0.5,0.6,0.8,1.3,0.8,2c0,0.3,0,0.5,0.2,0.5c0.2,0,0.2-0.2,0.3-0.5c0-0.4,0-1.6,0.1-2.4
		c0-0.8,0.1-1,0.1-1.2c0-0.1-0.1-0.2-0.3-0.3c-0.7-0.1-1.4-0.3-2.2-0.4c-1-0.1-1.8-0.2-3.2-0.2c-3.2,0-5.3,0.9-6.9,2.3
		c-2.1,1.9-2.5,4.5-2.5,6c0,2.1,0.6,4.6,2.7,6.4C86.4,24.3,88.9,25,91.9,25z"/>
	<g>
		<path class="st2" d="M87.4,37.6c-0.4,0.1-0.4,0.3-0.4,0.7v3c0,0.4,0,0.6,0.4,0.7v0.2h-5.7V42c0.4-0.1,0.4-0.3,0.4-0.7v-3
			c0-0.4,0-0.6-0.4-0.7v-0.2h1.4v0.2c-0.4,0.1-0.4,0.3-0.4,0.7v3.6h1.5v-3.6c0-0.4,0-0.6-0.4-0.7v-0.2h1.4v0.2
			c-0.4,0.1-0.4,0.3-0.4,0.7v3.6h1.5v-3.6c0-0.4,0-0.6-0.4-0.7v-0.2h1.4V37.6L87.4,37.6z M90.1,42.3c-1.4,0-1.9-1.1-1.9-2.4
			c0-1.2,0.5-2.5,1.9-2.5c1.4,0,1.9,1.1,1.9,2.4C92,41,91.5,42.3,90.1,42.3L90.1,42.3z M88.9,39.8c0,0.8,0.1,2.2,1.2,2.2
			c1.4,0,1.3-2.4,1-3.3c-0.2-0.5-0.5-1-1-1C89.1,37.7,88.9,39,88.9,39.8L88.9,39.8z M95.5,42.2V42c0.4-0.1,0.4-0.3,0.4-0.7v-1.5
			c0-0.5,0-0.8,0-0.9h0l-2,2.4c0,0.4,0,0.6,0.4,0.7v0.2h-1.5V42c0.4-0.1,0.4-0.3,0.4-0.7v-3c0-0.4,0-0.6-0.4-0.7v-0.2h1.5v0.2
			c-0.4,0.1-0.4,0.3-0.4,0.7c0,0.8,0,1.6,0,2.4h0l2-2.4c0-0.4,0-0.6-0.4-0.7v-0.2h1.4v0.2c-0.4,0.1-0.4,0.3-0.4,0.7v3
			c0,0.4,0,0.6,0.4,0.7v0.2H95.5L95.5,42.2z M101,37.6v1h-0.3c-0.1-0.5-0.4-0.8-0.9-0.8c-1.4,0-1.3,2.4-1.1,3.3c0.1,0.5,0.4,1,1,1
			c0.6,0,0.8-0.3,1-0.9h0.3v1c-0.5,0.1-0.9,0.2-1.4,0.2c-1.4,0-1.8-1.2-1.8-2.4c0-1.3,0.6-2.5,2-2.5C100.2,37.4,100.6,37.4,101,37.6
			L101,37.6z M101.6,37.5h3.8v1.2H105c-0.1-0.3-0.2-0.7-0.5-0.9c-0.2-0.1-0.5,0-0.7,0v3.6c0,0.4,0,0.6,0.5,0.7v0.2h-1.6V42
			c0.4-0.1,0.5-0.3,0.5-0.7v-3.6c-0.9,0-1,0-1.2,0.9h-0.3V37.5L101.6,37.5z M107.8,42.2h1.6V42c-0.4-0.1-0.4-0.4-0.5-0.8l-1.2-3.9
			h-0.5l-1.4,3.8c-0.1,0.3-0.3,0.7-0.6,0.8v0.2h1.5V42c-0.3,0-0.4-0.1-0.4-0.4c0-0.3,0.2-0.7,0.3-1h1.6c0.1,0.3,0.2,0.7,0.2,1
			c0,0.3-0.2,0.3-0.4,0.4V42.2L107.8,42.2z M106.5,40.3l0.8-2.2l0.7,2.2H106.5L106.5,40.3z M111.4,42.1v-1h0.3
			c0.2,0.5,0.4,0.9,1,0.9c0.6,0,1-0.4,1-1c0-1.1-0.9-1-1.7-1v-0.4c0.8,0,1.6,0.1,1.6-1c0-0.5-0.3-0.8-0.9-0.8c-0.6,0-0.8,0.3-1,0.8
			h-0.3v-0.9c0.9-0.2,2.9-0.6,2.9,0.9c0,0.5-0.3,0.9-0.9,1.2v0c0.7,0.2,1,0.6,1,1.2C114.5,42.5,112.5,42.4,111.4,42.1L111.4,42.1z
			 M117.9,42.2V42c0.4-0.1,0.4-0.3,0.4-0.7v-1.5c0-0.5,0-0.8,0-0.9h0l-2,2.4c0,0.4,0,0.6,0.4,0.7v0.2h-1.5V42
			c0.4-0.1,0.4-0.3,0.4-0.7v-3c0-0.4,0-0.6-0.4-0.7v-0.2h1.5v0.2c-0.4,0.1-0.4,0.3-0.4,0.7c0,0.8,0,1.6,0,2.4h0l2-2.4
			c0-0.4,0-0.6-0.4-0.7v-0.2h1.4v0.2c-0.4,0.1-0.4,0.3-0.4,0.7v3c0,0.4,0,0.6,0.4,0.7v0.2H117.9L117.9,42.2z M123.9,41.3
			c0,0.4,0,0.6,0.4,0.7v0.2h-1.5V42c0.4-0.1,0.4-0.3,0.4-0.7v-1.5h-1.9v1.5c0,0.4,0,0.6,0.4,0.7v0.2h-1.5V42
			c0.4-0.1,0.4-0.3,0.4-0.7v-3c0-0.4,0-0.6-0.4-0.7v-0.2h1.5v0.2c-0.4,0.1-0.4,0.3-0.4,0.7v1.2h1.9v-1.2c0-0.4,0-0.6-0.4-0.7v-0.2
			h1.5v0.2c-0.4,0.1-0.4,0.3-0.4,0.7V41.3L123.9,41.3z M128.7,43.4c0-0.3-0.1-1-0.4-1.1c-0.1-0.1-0.2-0.1-0.4-0.1h-2.1
			c-0.6,0-0.7,0.8-0.7,1.2h-0.4v-1.6h0.3c0.7-0.9,1.3-2.6,1.3-3.8c0-0.3,0-0.4-0.3-0.5v-0.2h2.8v0.2c-0.4,0.1-0.4,0.3-0.4,0.7v3.6
			h0.6v1.6H128.7L128.7,43.4z M127.9,37.8h-1c-0.1,1.8-0.5,3.2-1.2,4.1h2.2V37.8L127.9,37.8z M132.1,42.2V42c0.3,0,0.4-0.1,0.4-0.4
			c0-0.3-0.2-0.7-0.2-1h-1.6c-0.1,0.3-0.3,0.7-0.3,1c0,0.3,0.2,0.4,0.4,0.4v0.2h-1.5V42c0.3-0.1,0.5-0.5,0.6-0.8l1.4-3.8h0.5
			l1.2,3.9c0.1,0.3,0.2,0.7,0.5,0.8v0.2H132.1L132.1,42.2z M130.8,40.3h1.5l-0.7-2.2L130.8,40.3L130.8,40.3z M137,38.7
			c-0.1-0.4-0.2-1-0.7-1h-1v3.5c0,0.4,0,0.7,0.5,0.7v0.2h-1.6V42c0.4-0.1,0.4-0.3,0.4-0.7v-3c0-0.4,0-0.6-0.4-0.7v-0.2h3.1v1.3H137
			L137,38.7z M140.7,42.2V42c0.4-0.1,0.4-0.3,0.4-0.7v-1.5c0-0.5,0-0.8,0-0.9h0l-2,2.4c0,0.4,0,0.6,0.4,0.7v0.2H138V42
			c0.4-0.1,0.4-0.3,0.4-0.7v-3c0-0.4,0-0.6-0.4-0.7v-0.2h1.5v0.2c-0.4,0.1-0.4,0.3-0.4,0.7c0,0.8,0,1.6,0,2.4h0l2-2.4
			c0-0.4,0-0.6-0.4-0.7v-0.2h1.4v0.2c-0.4,0.1-0.4,0.3-0.4,0.7v3c0,0.4,0,0.6,0.4,0.7v0.2H140.7L140.7,42.2z M141,36.8h-1.9v-0.4
			h1.9V36.8L141,36.8z M148.2,41.3c0,0.4,0,0.6,0.4,0.7v0.2h-1.5V42c0.4-0.1,0.4-0.3,0.4-0.7v-1.5h-1.9v1.5c0,0.4,0,0.6,0.4,0.7v0.2
			h-1.5V42c0.4-0.1,0.4-0.3,0.4-0.7v-3c0-0.4,0-0.6-0.4-0.7v-0.2h1.5v0.2c-0.4,0.1-0.4,0.3-0.4,0.7v1.2h1.9v-1.2
			c0-0.4,0-0.6-0.4-0.7v-0.2h1.5v0.2c-0.4,0.1-0.4,0.3-0.4,0.7V41.3L148.2,41.3z M151.8,42.2V42c0.3,0,0.4-0.1,0.4-0.4
			c0-0.3-0.2-0.7-0.2-1h-1.6c-0.1,0.3-0.3,0.7-0.3,1c0,0.3,0.2,0.4,0.4,0.4v0.2H149V42c0.3-0.1,0.5-0.5,0.6-0.8l1.4-3.8h0.5l1.2,3.9
			c0.1,0.3,0.2,0.7,0.5,0.8v0.2H151.8L151.8,42.2z M150.4,40.3h1.5l-0.7-2.2L150.4,40.3L150.4,40.3z M158.8,37.6
			c-0.4,0.1-0.4,0.3-0.4,0.7v3c0,0.4,0,0.6,0.4,0.7v0.2h-1.4V42c0.4-0.1,0.4-0.3,0.4-0.7c0-0.8,0-1.6,0-2.4c0-0.4,0-0.6,0-0.7h-0.1
			l-1.4,3.4H156l-1.3-3.5h-0.1c0.1,1,0,2.2,0,3.2c0,0.4,0,0.6,0.4,0.7v0.2h-1.3V42c0.4-0.1,0.4-0.3,0.4-0.7v-3c0-0.4,0-0.6-0.4-0.7
			v-0.2h1.2l1.2,3.4l1.3-3.4h1.2V37.6L158.8,37.6z M161.5,42.3c-1.4,0-1.9-1.1-1.9-2.4c0-1.2,0.5-2.5,1.9-2.5c1.4,0,1.9,1.1,1.9,2.4
			C163.5,41,163,42.3,161.5,42.3L161.5,42.3z M160.4,39.8c0,0.8,0.1,2.2,1.2,2.2c1.4,0,1.3-2.4,1-3.3c-0.2-0.5-0.5-1-1-1
			C160.5,37.7,160.4,39,160.4,39.8z"/>
		<g>
			<rect x="164.9" y="41.4" class="st2" width="0.7" height="0.8"/>
			<polygon class="st2" points="165.6,37.5 165.4,40.7 165.1,40.7 164.9,37.5 			"/>
		</g>
	</g>
</g>
</svg>
